G04 #@! TF.GenerationSoftware,KiCad,Pcbnew,8.0.6*
G04 #@! TF.CreationDate,2024-11-27T10:36:12+01:00*
G04 #@! TF.ProjectId,TDR1,54445231-2e6b-4696-9361-645f70636258,0.1*
G04 #@! TF.SameCoordinates,Original*
G04 #@! TF.FileFunction,Copper,L1,Top*
G04 #@! TF.FilePolarity,Positive*
%FSLAX46Y46*%
G04 Gerber Fmt 4.6, Leading zero omitted, Abs format (unit mm)*
G04 Created by KiCad (PCBNEW 8.0.6) date 2024-11-27 10:36:12*
%MOMM*%
%LPD*%
G01*
G04 APERTURE LIST*
G04 Aperture macros list*
%AMRoundRect*
0 Rectangle with rounded corners*
0 $1 Rounding radius*
0 $2 $3 $4 $5 $6 $7 $8 $9 X,Y pos of 4 corners*
0 Add a 4 corners polygon primitive as box body*
4,1,4,$2,$3,$4,$5,$6,$7,$8,$9,$2,$3,0*
0 Add four circle primitives for the rounded corners*
1,1,$1+$1,$2,$3*
1,1,$1+$1,$4,$5*
1,1,$1+$1,$6,$7*
1,1,$1+$1,$8,$9*
0 Add four rect primitives between the rounded corners*
20,1,$1+$1,$2,$3,$4,$5,0*
20,1,$1+$1,$4,$5,$6,$7,0*
20,1,$1+$1,$6,$7,$8,$9,0*
20,1,$1+$1,$8,$9,$2,$3,0*%
G04 Aperture macros list end*
G04 #@! TA.AperFunction,SMDPad,CuDef*
%ADD10R,0.800000X0.800000*%
G04 #@! TD*
G04 #@! TA.AperFunction,SMDPad,CuDef*
%ADD11RoundRect,0.200000X-0.200000X-0.275000X0.200000X-0.275000X0.200000X0.275000X-0.200000X0.275000X0*%
G04 #@! TD*
G04 #@! TA.AperFunction,SMDPad,CuDef*
%ADD12R,2.290000X5.080000*%
G04 #@! TD*
G04 #@! TA.AperFunction,SMDPad,CuDef*
%ADD13R,2.420000X5.080000*%
G04 #@! TD*
G04 #@! TA.AperFunction,SMDPad,CuDef*
%ADD14R,0.460000X0.950000*%
G04 #@! TD*
G04 #@! TA.AperFunction,ComponentPad*
%ADD15C,0.970000*%
G04 #@! TD*
G04 #@! TA.AperFunction,SMDPad,CuDef*
%ADD16RoundRect,0.150000X-0.512500X-0.150000X0.512500X-0.150000X0.512500X0.150000X-0.512500X0.150000X0*%
G04 #@! TD*
G04 #@! TA.AperFunction,SMDPad,CuDef*
%ADD17R,0.950000X0.950000*%
G04 #@! TD*
G04 #@! TA.AperFunction,SMDPad,CuDef*
%ADD18RoundRect,0.237500X-0.287500X-0.237500X0.287500X-0.237500X0.287500X0.237500X-0.287500X0.237500X0*%
G04 #@! TD*
G04 #@! TA.AperFunction,ComponentPad*
%ADD19C,1.800000*%
G04 #@! TD*
G04 #@! TA.AperFunction,ComponentPad*
%ADD20C,2.400000*%
G04 #@! TD*
G04 #@! TA.AperFunction,SMDPad,CuDef*
%ADD21RoundRect,0.175000X0.175000X0.425000X-0.175000X0.425000X-0.175000X-0.425000X0.175000X-0.425000X0*%
G04 #@! TD*
G04 #@! TA.AperFunction,SMDPad,CuDef*
%ADD22RoundRect,0.190000X-0.190000X-0.410000X0.190000X-0.410000X0.190000X0.410000X-0.190000X0.410000X0*%
G04 #@! TD*
G04 #@! TA.AperFunction,SMDPad,CuDef*
%ADD23RoundRect,0.200000X-0.200000X-0.400000X0.200000X-0.400000X0.200000X0.400000X-0.200000X0.400000X0*%
G04 #@! TD*
G04 #@! TA.AperFunction,SMDPad,CuDef*
%ADD24RoundRect,0.175000X-0.175000X-0.425000X0.175000X-0.425000X0.175000X0.425000X-0.175000X0.425000X0*%
G04 #@! TD*
G04 #@! TA.AperFunction,SMDPad,CuDef*
%ADD25RoundRect,0.190000X0.190000X0.410000X-0.190000X0.410000X-0.190000X-0.410000X0.190000X-0.410000X0*%
G04 #@! TD*
G04 #@! TA.AperFunction,SMDPad,CuDef*
%ADD26RoundRect,0.200000X0.200000X0.400000X-0.200000X0.400000X-0.200000X-0.400000X0.200000X-0.400000X0*%
G04 #@! TD*
G04 #@! TA.AperFunction,SMDPad,CuDef*
%ADD27RoundRect,0.250000X0.650000X0.425000X-0.650000X0.425000X-0.650000X-0.425000X0.650000X-0.425000X0*%
G04 #@! TD*
G04 #@! TA.AperFunction,SMDPad,CuDef*
%ADD28RoundRect,0.250000X0.650000X0.500000X-0.650000X0.500000X-0.650000X-0.500000X0.650000X-0.500000X0*%
G04 #@! TD*
G04 #@! TA.AperFunction,SMDPad,CuDef*
%ADD29R,0.900000X1.600000*%
G04 #@! TD*
G04 #@! TA.AperFunction,SMDPad,CuDef*
%ADD30RoundRect,0.200000X-0.275000X0.200000X-0.275000X-0.200000X0.275000X-0.200000X0.275000X0.200000X0*%
G04 #@! TD*
G04 #@! TA.AperFunction,ViaPad*
%ADD31C,0.610000*%
G04 #@! TD*
G04 #@! TA.AperFunction,Conductor*
%ADD32C,1.000000*%
G04 #@! TD*
G04 #@! TA.AperFunction,Conductor*
%ADD33C,0.600000*%
G04 #@! TD*
G04 #@! TA.AperFunction,Conductor*
%ADD34C,1.016000*%
G04 #@! TD*
G04 #@! TA.AperFunction,Conductor*
%ADD35C,0.304800*%
G04 #@! TD*
G04 #@! TA.AperFunction,Conductor*
%ADD36C,0.609600*%
G04 #@! TD*
G04 #@! TA.AperFunction,Conductor*
%ADD37C,0.152400*%
G04 #@! TD*
G04 #@! TA.AperFunction,Conductor*
%ADD38C,0.254000*%
G04 #@! TD*
G04 #@! TA.AperFunction,Conductor*
%ADD39C,0.800000*%
G04 #@! TD*
G04 APERTURE END LIST*
D10*
G04 #@! TO.P,C3,P$1,P$1*
G04 #@! TO.N,GND*
X11400000Y11650000D03*
G04 #@! TO.P,C3,P$2,P$2*
G04 #@! TO.N,+5V*
X12900000Y11650000D03*
G04 #@! TD*
D11*
G04 #@! TO.P,R9,1,1*
G04 #@! TO.N,+5V*
X9575000Y14800000D03*
G04 #@! TO.P,R9,2,2*
G04 #@! TO.N,Net-(D1-A)*
X11225000Y14800000D03*
G04 #@! TD*
D12*
G04 #@! TO.P,J3,1,In*
G04 #@! TO.N,Net-(J3-In)*
X21620000Y20000000D03*
D13*
G04 #@! TO.P,J3,2,Ext*
G04 #@! TO.N,GND*
X26000000Y20000000D03*
X17240000Y20000000D03*
D14*
X26000000Y17010000D03*
X17240000Y17010000D03*
D15*
X26000000Y16560000D03*
X17240000Y16560000D03*
G04 #@! TD*
D16*
G04 #@! TO.P,U1,1,1A*
G04 #@! TO.N,Net-(R6-P$3)*
X8425000Y8850000D03*
G04 #@! TO.P,U1,2,GND*
G04 #@! TO.N,GND*
X8425000Y7900000D03*
G04 #@! TO.P,U1,3,2A*
G04 #@! TO.N,Net-(R6-P$4)*
X8425000Y6950000D03*
G04 #@! TO.P,U1,4,2Y*
G04 #@! TO.N,Net-(R3-P$3)*
X10700000Y6950000D03*
G04 #@! TO.P,U1,5,V_{CC}*
G04 #@! TO.N,+5V*
X10700000Y7900000D03*
G04 #@! TO.P,U1,6,1Y*
G04 #@! TO.N,Net-(R6-P$4)*
X10700000Y8850000D03*
G04 #@! TD*
D17*
G04 #@! TO.P,R4,P$1,P$3*
G04 #@! TO.N,Net-(R1-P$3)*
X17131100Y7666400D03*
G04 #@! TO.P,R4,P$2,P$4*
G04 #@! TO.N,GND*
X18581100Y7666400D03*
G04 #@! TD*
G04 #@! TO.P,R1,P$1,P$3*
G04 #@! TO.N,Net-(R1-P$3)*
X18401100Y15286400D03*
G04 #@! TO.P,R1,P$2,P$4*
G04 #@! TO.N,Net-(J3-In)*
X19851100Y15286400D03*
G04 #@! TD*
D18*
G04 #@! TO.P,D1,1,A*
G04 #@! TO.N,Net-(D1-A)*
X12975000Y14800000D03*
G04 #@! TO.P,D1,2,K*
G04 #@! TO.N,GND*
X14725000Y14800000D03*
G04 #@! TD*
D19*
G04 #@! TO.P,J1,1*
G04 #@! TO.N,Net-(R2-P$3)*
X21666100Y7666400D03*
D20*
G04 #@! TO.P,J1,S1*
G04 #@! TO.N,GND*
X24816100Y10816400D03*
G04 #@! TO.P,J1,S2*
X24816100Y4516400D03*
G04 #@! TO.P,J1,S3*
X18516100Y4516400D03*
G04 #@! TO.P,J1,S4*
X18516100Y10816400D03*
G04 #@! TD*
D17*
G04 #@! TO.P,R6,P$1,P$3*
G04 #@! TO.N,Net-(R6-P$3)*
X4212500Y7000000D03*
G04 #@! TO.P,R6,P$2,P$4*
G04 #@! TO.N,Net-(R6-P$4)*
X5662500Y7000000D03*
G04 #@! TD*
D21*
G04 #@! TO.P,J2,A5,CC1*
G04 #@! TO.N,Net-(J2-CC1)*
X7450000Y17467500D03*
D22*
G04 #@! TO.P,J2,A9,VBUS*
G04 #@! TO.N,+5V*
X5430000Y17467500D03*
D23*
G04 #@! TO.P,J2,A12,GND*
G04 #@! TO.N,GND*
X4200000Y17467500D03*
D24*
G04 #@! TO.P,J2,B5,CC2*
G04 #@! TO.N,Net-(J2-CC2)*
X6450000Y17467500D03*
D25*
G04 #@! TO.P,J2,B9,VBUS*
G04 #@! TO.N,+5V*
X8470000Y17467500D03*
D26*
G04 #@! TO.P,J2,B12,GND*
G04 #@! TO.N,GND*
X9700000Y17467500D03*
D27*
G04 #@! TO.P,J2,S1,SHIELD*
X12075000Y17522500D03*
D28*
X12075000Y21102500D03*
D27*
X1825000Y17522500D03*
D28*
X1825000Y21102500D03*
G04 #@! TD*
D10*
G04 #@! TO.P,C2,P$1,P$1*
G04 #@! TO.N,GND*
X11391100Y10206400D03*
G04 #@! TO.P,C2,P$2,P$2*
G04 #@! TO.N,+5V*
X12891100Y10206400D03*
G04 #@! TD*
D17*
G04 #@! TO.P,R3,P$1,P$3*
G04 #@! TO.N,Net-(R3-P$3)*
X15316100Y6306400D03*
G04 #@! TO.P,R3,P$2,P$4*
G04 #@! TO.N,Net-(R1-P$3)*
X15316100Y7756400D03*
G04 #@! TD*
D29*
G04 #@! TO.P,C4,P$1,P$1*
G04 #@! TO.N,GND*
X6300000Y12450000D03*
G04 #@! TO.P,C4,P$2,P$2*
G04 #@! TO.N,+5V*
X9400000Y12450000D03*
G04 #@! TD*
D30*
G04 #@! TO.P,R7,1*
G04 #@! TO.N,Net-(J2-CC1)*
X3977000Y13700000D03*
G04 #@! TO.P,R7,2*
G04 #@! TO.N,GND*
X3977000Y12050000D03*
G04 #@! TD*
D10*
G04 #@! TO.P,C1,P$1,P$1*
G04 #@! TO.N,GND*
X5587500Y8550000D03*
G04 #@! TO.P,C1,P$2,P$2*
G04 #@! TO.N,Net-(R6-P$3)*
X4087500Y8550000D03*
G04 #@! TD*
D17*
G04 #@! TO.P,R5,P$1,P$3*
G04 #@! TO.N,Net-(J3-In)*
X21666100Y14741400D03*
G04 #@! TO.P,R5,P$2,P$4*
G04 #@! TO.N,Net-(R2-P$3)*
X21666100Y13291400D03*
G04 #@! TD*
D30*
G04 #@! TO.P,R8,1*
G04 #@! TO.N,Net-(J2-CC2)*
X1450000Y13700000D03*
G04 #@! TO.P,R8,2*
G04 #@! TO.N,GND*
X1450000Y12050000D03*
G04 #@! TD*
D17*
G04 #@! TO.P,R2,P$1,P$3*
G04 #@! TO.N,Net-(R2-P$3)*
X19851100Y13381400D03*
G04 #@! TO.P,R2,P$2,P$4*
G04 #@! TO.N,Net-(R1-P$3)*
X18401100Y13381400D03*
G04 #@! TD*
D31*
G04 #@! TO.N,GND*
X27900000Y18200000D03*
X27900000Y16400000D03*
X14600000Y17450000D03*
X19150000Y16400000D03*
X14300000Y13750000D03*
X19800000Y5800000D03*
X27890000Y4655000D03*
X6900000Y7900000D03*
X15100000Y4750000D03*
X22810000Y2115000D03*
X19200000Y6450000D03*
X24000000Y6500000D03*
X24250000Y7600000D03*
X15190000Y2115000D03*
X3900000Y11000000D03*
X5150000Y12400000D03*
X2490000Y4655000D03*
X24150000Y8500000D03*
X14250000Y9050000D03*
X22650000Y16400000D03*
X9700000Y19800000D03*
X5030000Y4655000D03*
X17730000Y2115000D03*
X25350000Y14815000D03*
X5030000Y2115000D03*
X7570000Y2115000D03*
X12050000Y19250000D03*
X27890000Y9735000D03*
X7570000Y4655000D03*
X19750000Y9500000D03*
X23550000Y9500000D03*
X20700000Y5250000D03*
X14250000Y10650000D03*
X22700000Y13750000D03*
X20550000Y16450000D03*
X7600000Y12400000D03*
X27890000Y2115000D03*
X16750000Y9050000D03*
X2490000Y9735000D03*
X22750000Y10200000D03*
X16300000Y15150000D03*
X23300000Y5650000D03*
X15190000Y19895000D03*
X7100000Y20750000D03*
X20270000Y2115000D03*
X27890000Y14815000D03*
X20550000Y10200000D03*
X22750000Y15100000D03*
X16750000Y6400000D03*
X6900000Y9100000D03*
X12850000Y4700000D03*
X27890000Y12275000D03*
X21700000Y5050000D03*
X16750000Y10600000D03*
X19050000Y8750000D03*
X4200000Y19800000D03*
X2490000Y7195000D03*
X1850000Y19300000D03*
X22700000Y11900000D03*
X22550000Y5250000D03*
X10750000Y4700000D03*
X10110000Y2115000D03*
X14300000Y12600000D03*
X12650000Y2115000D03*
X25350000Y2115000D03*
X10100000Y10500000D03*
X16750000Y11900000D03*
X14250000Y7400000D03*
X20550000Y11900000D03*
X27890000Y7195000D03*
X2490000Y2115000D03*
G04 #@! TD*
D32*
G04 #@! TO.N,+5V*
X10850000Y13100000D02*
X12550000Y13100000D01*
D33*
X5430000Y17467500D02*
X5430000Y18680000D01*
D34*
X9400000Y12450000D02*
X9400000Y13400000D01*
D32*
X13050000Y12600000D02*
X13050000Y8350000D01*
D33*
X10700000Y7900000D02*
X12600000Y7900000D01*
D32*
X9400000Y12450000D02*
X10050000Y13100000D01*
D34*
X8470000Y14330000D02*
X8470000Y15000000D01*
D32*
X13050000Y8350000D02*
X12650000Y7950000D01*
D33*
X8100000Y19200000D02*
X8470000Y18830000D01*
X8470000Y18830000D02*
X8470000Y17467500D01*
D35*
X12600000Y7900000D02*
X12650000Y7950000D01*
D34*
X8470000Y15000000D02*
X8470000Y15905000D01*
D35*
X8670000Y14800000D02*
X8470000Y15000000D01*
D32*
X10050000Y13100000D02*
X10850000Y13100000D01*
D33*
X5430000Y18680000D02*
X5950000Y19200000D01*
X8470000Y17467500D02*
X8470000Y15905000D01*
D34*
X9400000Y13400000D02*
X8470000Y14330000D01*
D36*
X9575000Y14800000D02*
X8670000Y14800000D01*
D33*
X5950000Y19200000D02*
X8100000Y19200000D01*
D32*
X12550000Y13100000D02*
X13050000Y12600000D01*
D35*
G04 #@! TO.N,GND*
X6900000Y7900000D02*
X8425000Y7900000D01*
X5587500Y8550000D02*
X6250000Y8550000D01*
X6250000Y8550000D02*
X6900000Y7900000D01*
G04 #@! TO.N,Net-(R6-P$3)*
X4087500Y9637500D02*
X4087500Y8550000D01*
X7400000Y10300000D02*
X4750000Y10300000D01*
X4087500Y7125000D02*
X4212500Y7000000D01*
X8425000Y9275000D02*
X7400000Y10300000D01*
X8425000Y8850000D02*
X8425000Y9275000D01*
X4750000Y10300000D02*
X4087500Y9637500D01*
X4087500Y8550000D02*
X4087500Y7125000D01*
D32*
G04 #@! TO.N,Net-(R2-P$3)*
X19851100Y13381400D02*
X21666100Y13381400D01*
X21666100Y13291400D02*
X21666100Y7666400D01*
X21666100Y13381400D02*
X21666100Y13291400D01*
G04 #@! TO.N,Net-(R1-P$3)*
X18401100Y14016400D02*
X18401100Y13381400D01*
X15316100Y12746400D02*
X16586100Y14016400D01*
X16586100Y14016400D02*
X18401100Y14016400D01*
X18401100Y15286400D02*
X18401100Y14016400D01*
X15316100Y7666400D02*
X15316100Y7756400D01*
X17131100Y7666400D02*
X15316100Y7666400D01*
X15316100Y7756400D02*
X15316100Y12746400D01*
G04 #@! TO.N,Net-(R3-P$3)*
X11463600Y6306400D02*
X11053600Y6716400D01*
X15316100Y6306400D02*
X11463600Y6306400D01*
D37*
G04 #@! TO.N,Net-(R6-P$4)*
X9562500Y8400000D02*
X9562500Y7200000D01*
D35*
X5712500Y6950000D02*
X5662500Y7000000D01*
X8425000Y6950000D02*
X5712500Y6950000D01*
D37*
X10700000Y8850000D02*
X10012500Y8850000D01*
X9312500Y6950000D02*
X8425000Y6950000D01*
X9562500Y7200000D02*
X9312500Y6950000D01*
X10012500Y8850000D02*
X9562500Y8400000D01*
D38*
G04 #@! TO.N,Net-(J2-CC2)*
X6450000Y16300000D02*
X6450000Y17467500D01*
X1450000Y13700000D02*
X3400000Y15650000D01*
X5800000Y15650000D02*
X6450000Y16300000D01*
X3400000Y15650000D02*
X5800000Y15650000D01*
G04 #@! TO.N,Net-(J2-CC1)*
X3977000Y13977000D02*
X3977000Y13700000D01*
X4650000Y14650000D02*
X3977000Y13977000D01*
X5900000Y14650000D02*
X4650000Y14650000D01*
X7450000Y16200000D02*
X5900000Y14650000D01*
X7450000Y17467500D02*
X7450000Y16200000D01*
D37*
G04 #@! TO.N,Net-(D1-A)*
X11225000Y14800000D02*
X11225000Y14825000D01*
X11225000Y14825000D02*
X11250000Y14850000D01*
D38*
X11250000Y14850000D02*
X11300000Y14800000D01*
D36*
X11300000Y14800000D02*
X12975000Y14800000D01*
D32*
G04 #@! TO.N,Net-(J3-In)*
X19851100Y15286400D02*
X21666100Y15286400D01*
X21666100Y15286400D02*
X21666100Y14741400D01*
D39*
X21666100Y20031400D02*
X21666100Y15286400D01*
G04 #@! TD*
G04 #@! TA.AperFunction,Conductor*
G04 #@! TO.N,GND*
G36*
X13947300Y12704778D02*
G01*
X13945731Y12712666D01*
X13915895Y12862666D01*
X13854325Y13011308D01*
X13848013Y13026547D01*
X13788670Y13115360D01*
X13749466Y13174033D01*
X13624035Y13299464D01*
X13124037Y13799463D01*
X13124036Y13799464D01*
X13071210Y13834760D01*
X13050376Y13865941D01*
X13057691Y13902723D01*
X13088874Y13923559D01*
X13098434Y13924501D01*
X13326933Y13924501D01*
X13326934Y13924501D01*
X13326939Y13924502D01*
X13326948Y13924502D01*
X13347301Y13926104D01*
X13363098Y13927346D01*
X13517894Y13972319D01*
X13656643Y14054374D01*
X13770626Y14168357D01*
X13852681Y14307106D01*
X13897654Y14461902D01*
X13900500Y14498065D01*
X13900499Y15101934D01*
X13899521Y15114360D01*
X13897654Y15138098D01*
X13874419Y15218073D01*
X13852681Y15292894D01*
X13770626Y15431643D01*
X13656643Y15545626D01*
X13623032Y15565503D01*
X13517894Y15627681D01*
X13517896Y15627681D01*
X13363097Y15672655D01*
X13337754Y15674649D01*
X13326935Y15675500D01*
X13326930Y15675500D01*
X12623066Y15675500D01*
X12623051Y15675499D01*
X12586902Y15672655D01*
X12432104Y15627681D01*
X12293359Y15545628D01*
X12293354Y15545624D01*
X12267383Y15519652D01*
X12232735Y15505300D01*
X11867284Y15505300D01*
X11837455Y15515426D01*
X11727841Y15599536D01*
X11727836Y15599539D01*
X11581761Y15660045D01*
X11501062Y15670669D01*
X11464361Y15675500D01*
X11464358Y15675500D01*
X10985643Y15675500D01*
X10985641Y15675500D01*
X10985640Y15675499D01*
X10971983Y15673702D01*
X10868238Y15660045D01*
X10722163Y15599539D01*
X10722158Y15599536D01*
X10596718Y15503283D01*
X10596717Y15503282D01*
X10500464Y15377842D01*
X10500463Y15377840D01*
X10445270Y15244591D01*
X10418751Y15218073D01*
X10381248Y15218073D01*
X10354730Y15244591D01*
X10299536Y15377840D01*
X10299535Y15377842D01*
X10203282Y15503282D01*
X10203281Y15503283D01*
X10077841Y15599536D01*
X10077836Y15599539D01*
X9931761Y15660045D01*
X9841675Y15671905D01*
X9814361Y15675500D01*
X9814359Y15675500D01*
X9427500Y15675500D01*
X9392852Y15689852D01*
X9378500Y15724500D01*
X9378500Y15994476D01*
X9378500Y15994479D01*
X9343587Y16170000D01*
X9275102Y16335336D01*
X9178758Y16479526D01*
X9170500Y16506749D01*
X9170500Y16737393D01*
X9175575Y16756319D01*
X9174571Y16756735D01*
X9175801Y16759704D01*
X9235301Y16903349D01*
X9250500Y17018799D01*
X9250499Y17916200D01*
X9235301Y18031651D01*
X9175800Y18175298D01*
X9175799Y18175300D01*
X9174571Y18178264D01*
X9175569Y18178678D01*
X9170500Y18197607D01*
X9170500Y18898993D01*
X9170499Y18898999D01*
X9143582Y19034319D01*
X9143579Y19034330D01*
X9090776Y19161808D01*
X9090775Y19161811D01*
X9014114Y19276543D01*
X8546543Y19744114D01*
X8431811Y19820775D01*
X8431808Y19820777D01*
X8431807Y19820777D01*
X8304329Y19873580D01*
X8304320Y19873582D01*
X8168997Y19900500D01*
X8168994Y19900500D01*
X8168993Y19900500D01*
X6018994Y19900500D01*
X5881006Y19900500D01*
X5881002Y19900500D01*
X5745679Y19873582D01*
X5745670Y19873580D01*
X5618192Y19820777D01*
X5503457Y19744115D01*
X4885885Y19126543D01*
X4809223Y19011808D01*
X4756420Y18884330D01*
X4756420Y18884329D01*
X4756420Y18884328D01*
X4731890Y18761006D01*
X4731890Y18761005D01*
X4729500Y18748994D01*
X4729500Y18197607D01*
X4724430Y18178678D01*
X4725429Y18178264D01*
X4664698Y18031649D01*
X4649500Y17916200D01*
X4649500Y17018804D01*
X4649501Y17018802D01*
X4664698Y16903352D01*
X4664698Y16903350D01*
X4664699Y16903349D01*
X4724200Y16759702D01*
X4818851Y16636351D01*
X4942202Y16541700D01*
X5085849Y16482199D01*
X5201299Y16467000D01*
X5658700Y16467001D01*
X5760078Y16480347D01*
X5796302Y16470640D01*
X5815053Y16438161D01*
X5805346Y16401936D01*
X5801120Y16397118D01*
X5595855Y16191852D01*
X5561207Y16177500D01*
X3330550Y16177500D01*
X3196394Y16141553D01*
X3196390Y16141552D01*
X3076106Y16072105D01*
X1518853Y14514852D01*
X1484205Y14500500D01*
X1135643Y14500500D01*
X1135641Y14500500D01*
X1135640Y14500499D01*
X1121983Y14498702D01*
X1018238Y14485045D01*
X872163Y14424539D01*
X872158Y14424536D01*
X746718Y14328283D01*
X746717Y14328282D01*
X650464Y14202842D01*
X650461Y14202837D01*
X589955Y14056762D01*
X574500Y13939360D01*
X574500Y13460644D01*
X574501Y13460642D01*
X589955Y13343239D01*
X650461Y13197164D01*
X650464Y13197159D01*
X746718Y13071718D01*
X872159Y12975464D01*
X872161Y12975464D01*
X872163Y12975462D01*
X1018238Y12914956D01*
X1135639Y12899500D01*
X1764360Y12899501D01*
X1881762Y12914956D01*
X2027841Y12975464D01*
X2153282Y13071718D01*
X2249536Y13197159D01*
X2310044Y13343238D01*
X2325500Y13460639D01*
X2325499Y13809208D01*
X2339850Y13843854D01*
X3604146Y15108148D01*
X3638794Y15122500D01*
X4258206Y15122500D01*
X4292854Y15108148D01*
X4307206Y15073500D01*
X4292854Y15038852D01*
X4227893Y14973891D01*
X3768853Y14514852D01*
X3734206Y14500500D01*
X3662643Y14500500D01*
X3662641Y14500500D01*
X3662640Y14500499D01*
X3648983Y14498702D01*
X3545238Y14485045D01*
X3399163Y14424539D01*
X3399158Y14424536D01*
X3273718Y14328283D01*
X3273717Y14328282D01*
X3177464Y14202842D01*
X3177461Y14202837D01*
X3116955Y14056762D01*
X3101500Y13939360D01*
X3101500Y13460644D01*
X3101501Y13460642D01*
X3116955Y13343239D01*
X3177461Y13197164D01*
X3177464Y13197159D01*
X3273718Y13071718D01*
X3399159Y12975464D01*
X3399161Y12975464D01*
X3399163Y12975462D01*
X3545238Y12914956D01*
X3662639Y12899500D01*
X4291360Y12899501D01*
X4408762Y12914956D01*
X4554841Y12975464D01*
X4680282Y13071718D01*
X4776536Y13197159D01*
X4837044Y13343238D01*
X4852500Y13460639D01*
X4852499Y13939360D01*
X4838000Y14049500D01*
X4836625Y14059946D01*
X4837594Y14060074D01*
X4842014Y14093655D01*
X4849807Y14103810D01*
X4854150Y14108152D01*
X4888794Y14122500D01*
X5969449Y14122500D01*
X6014167Y14134483D01*
X6036527Y14140474D01*
X6103608Y14158448D01*
X6184414Y14205102D01*
X6223893Y14227895D01*
X6322105Y14326107D01*
X6322105Y14326109D01*
X6326134Y14330137D01*
X6326137Y14330142D01*
X7477853Y15481857D01*
X7512500Y15496208D01*
X7547148Y15481856D01*
X7561500Y15447208D01*
X7561500Y15089479D01*
X7561500Y14419479D01*
X7561500Y14240521D01*
X7584976Y14122500D01*
X7596413Y14065000D01*
X7596413Y14064999D01*
X7654609Y13924501D01*
X7664897Y13899664D01*
X7687430Y13865941D01*
X7764319Y13750868D01*
X8477148Y13038039D01*
X8491500Y13003391D01*
X8491500Y12360521D01*
X8526413Y12185000D01*
X8543878Y12142834D01*
X8545770Y12138268D01*
X8549500Y12119517D01*
X8549500Y11618483D01*
X8564353Y11524697D01*
X8621945Y11411665D01*
X8621950Y11411658D01*
X8711657Y11321951D01*
X8711664Y11321946D01*
X8824691Y11264356D01*
X8824692Y11264356D01*
X8824696Y11264354D01*
X8918481Y11249500D01*
X9881518Y11249501D01*
X9975304Y11264354D01*
X10036387Y11295478D01*
X10088335Y11321946D01*
X10088337Y11321948D01*
X10088342Y11321950D01*
X10178050Y11411658D01*
X10178054Y11411665D01*
X10235644Y11524691D01*
X10235644Y11524693D01*
X10235646Y11524696D01*
X10250500Y11618481D01*
X10250499Y12006705D01*
X10264851Y12041352D01*
X10408648Y12185148D01*
X10443296Y12199500D01*
X10761309Y12199500D01*
X12060815Y12199500D01*
X12095463Y12185148D01*
X12109815Y12150500D01*
X12109212Y12142843D01*
X12099500Y12081519D01*
X12099500Y12081518D01*
X12099500Y11218483D01*
X12114353Y11124697D01*
X12144159Y11066202D01*
X12149500Y11043956D01*
X12149500Y10829913D01*
X12144159Y10807668D01*
X12105455Y10731708D01*
X12105454Y10731706D01*
X12105454Y10731704D01*
X12090600Y10637919D01*
X12090600Y10637918D01*
X12090600Y9774883D01*
X12105453Y9681097D01*
X12105454Y9681096D01*
X12139392Y9614489D01*
X12144159Y9605135D01*
X12149500Y9582889D01*
X12149500Y8743296D01*
X12135148Y8708648D01*
X12041352Y8614852D01*
X12006704Y8600500D01*
X11811464Y8600500D01*
X11776816Y8614852D01*
X11762464Y8649500D01*
X11762813Y8655335D01*
X11763000Y8656895D01*
X11763000Y9043106D01*
X11752378Y9131557D01*
X11752377Y9131558D01*
X11752377Y9131564D01*
X11696861Y9272342D01*
X11692532Y9278050D01*
X11659518Y9321586D01*
X11605422Y9392922D01*
X11533704Y9447308D01*
X11484844Y9484360D01*
X11484842Y9484361D01*
X11344064Y9539877D01*
X11344060Y9539878D01*
X11344056Y9539879D01*
X11255605Y9550500D01*
X11255602Y9550500D01*
X10144398Y9550500D01*
X10144395Y9550500D01*
X10055943Y9539879D01*
X10055937Y9539878D01*
X10055936Y9539877D01*
X9959786Y9501961D01*
X9915155Y9484360D01*
X9794578Y9392922D01*
X9703138Y9272342D01*
X9669403Y9186798D01*
X9658468Y9170126D01*
X9563937Y9075594D01*
X9529289Y9061242D01*
X9494641Y9075594D01*
X9480639Y9104399D01*
X9477377Y9131564D01*
X9421861Y9272342D01*
X9417532Y9278050D01*
X9384518Y9321586D01*
X9330422Y9392922D01*
X9258704Y9447308D01*
X9209844Y9484360D01*
X9209842Y9484361D01*
X9069064Y9539877D01*
X9069060Y9539878D01*
X9069056Y9539879D01*
X8980605Y9550500D01*
X8980602Y9550500D01*
X8932664Y9550500D01*
X8898016Y9564852D01*
X8890229Y9575000D01*
X8878883Y9594652D01*
X8867430Y9614489D01*
X8764489Y9717430D01*
X8762783Y9719136D01*
X8762772Y9719146D01*
X7845225Y10636693D01*
X7845223Y10636696D01*
X7739492Y10742427D01*
X7739489Y10742430D01*
X7739485Y10742432D01*
X7739483Y10742434D01*
X7676450Y10778826D01*
X7613414Y10815221D01*
X7613411Y10815222D01*
X7503237Y10844742D01*
X7493088Y10847462D01*
X7472793Y10852900D01*
X7472791Y10852900D01*
X4677209Y10852900D01*
X4677206Y10852900D01*
X4536590Y10815222D01*
X4536586Y10815221D01*
X4410510Y10742430D01*
X4410510Y10742429D01*
X3645073Y9976993D01*
X3645066Y9976984D01*
X3608674Y9913950D01*
X3572279Y9850914D01*
X3570610Y9844682D01*
X3570609Y9844683D01*
X3570609Y9844679D01*
X3534600Y9710295D01*
X3534600Y9351613D01*
X3520248Y9316965D01*
X3507846Y9307954D01*
X3449161Y9278052D01*
X3449154Y9278047D01*
X3359450Y9188343D01*
X3359445Y9188336D01*
X3301855Y9075310D01*
X3301855Y9075308D01*
X3301854Y9075306D01*
X3301854Y9075304D01*
X3296754Y9043102D01*
X3287000Y8981518D01*
X3287000Y8118483D01*
X3301853Y8024697D01*
X3359445Y7911665D01*
X3359450Y7911658D01*
X3448959Y7822149D01*
X3463311Y7787501D01*
X3448960Y7752854D01*
X3409451Y7713344D01*
X3409445Y7713336D01*
X3351855Y7600310D01*
X3351855Y7600308D01*
X3337000Y7506518D01*
X3337000Y6493483D01*
X3351853Y6399697D01*
X3409445Y6286665D01*
X3409450Y6286658D01*
X3499157Y6196951D01*
X3499164Y6196946D01*
X3612191Y6139356D01*
X3612192Y6139356D01*
X3612196Y6139354D01*
X3705981Y6124500D01*
X4719018Y6124501D01*
X4812804Y6139354D01*
X4915253Y6191556D01*
X4952641Y6194498D01*
X4959744Y6191555D01*
X5062191Y6139356D01*
X5062192Y6139356D01*
X5062196Y6139354D01*
X5155981Y6124500D01*
X6169018Y6124501D01*
X6262804Y6139354D01*
X6371030Y6194498D01*
X6375835Y6196946D01*
X6375837Y6196948D01*
X6375842Y6196950D01*
X6465550Y6286658D01*
X6508191Y6370346D01*
X6536708Y6394702D01*
X6551850Y6397100D01*
X7516258Y6397100D01*
X7545866Y6387143D01*
X7568017Y6370345D01*
X7640158Y6315639D01*
X7780936Y6260123D01*
X7780942Y6260123D01*
X7780943Y6260122D01*
X7869395Y6249500D01*
X7869398Y6249500D01*
X8980605Y6249500D01*
X9069056Y6260122D01*
X9069056Y6260123D01*
X9069064Y6260123D01*
X9209842Y6315639D01*
X9330422Y6407078D01*
X9371868Y6461735D01*
X9398227Y6479455D01*
X9496499Y6505787D01*
X9605200Y6568545D01*
X9611049Y6574395D01*
X9645695Y6588748D01*
X9680344Y6574398D01*
X9691281Y6557725D01*
X9703138Y6527658D01*
X9753132Y6461733D01*
X9794578Y6407078D01*
X9915158Y6315639D01*
X10055936Y6260123D01*
X10055942Y6260123D01*
X10055943Y6260122D01*
X10144395Y6249500D01*
X10144398Y6249500D01*
X10256360Y6249500D01*
X10291008Y6235148D01*
X10297102Y6227723D01*
X10354135Y6142365D01*
X10764136Y5732365D01*
X10889567Y5606934D01*
X10987445Y5541535D01*
X11037053Y5508387D01*
X11037054Y5508387D01*
X11037055Y5508386D01*
X11085051Y5488505D01*
X11133051Y5468624D01*
X11200934Y5440505D01*
X11374909Y5405900D01*
X11374912Y5405900D01*
X13947300Y5405900D01*
X13947300Y3236D01*
X13931035Y0D01*
X49000Y0D01*
X14352Y14352D01*
X0Y49000D01*
X0Y22933600D01*
X14352Y22968248D01*
X49000Y22982600D01*
X13600000Y22982600D01*
X13947300Y22982600D01*
X13947300Y12704778D01*
G37*
G04 #@! TD.AperFunction*
G04 #@! TA.AperFunction,Conductor*
G36*
X13947300Y7206900D02*
G01*
X13298696Y7206900D01*
X13264048Y7221252D01*
X13249696Y7255900D01*
X13264048Y7290548D01*
X13749463Y7775964D01*
X13749465Y7775967D01*
X13749466Y7775968D01*
X13764651Y7798694D01*
X13848013Y7923453D01*
X13915894Y8087334D01*
X13928260Y8149500D01*
X13947300Y8245220D01*
X13947300Y7206900D01*
G37*
G04 #@! TD.AperFunction*
G04 #@! TA.AperFunction,Conductor*
G36*
X7185334Y9732748D02*
G01*
X7491773Y9426309D01*
X7506125Y9391661D01*
X7496169Y9362054D01*
X7428140Y9272344D01*
X7428139Y9272343D01*
X7428139Y9272342D01*
X7395014Y9188342D01*
X7372623Y9131563D01*
X7372621Y9131557D01*
X7362000Y9043106D01*
X7362000Y8656895D01*
X7372621Y8568444D01*
X7372622Y8568440D01*
X7372623Y8568436D01*
X7428139Y8427658D01*
X7428140Y8427656D01*
X7465192Y8378796D01*
X7519578Y8307078D01*
X7640158Y8215639D01*
X7780936Y8160123D01*
X7780942Y8160123D01*
X7780943Y8160122D01*
X7869395Y8149500D01*
X7869398Y8149500D01*
X8980604Y8149500D01*
X9016509Y8153812D01*
X9030957Y8155547D01*
X9067070Y8145429D01*
X9085450Y8112740D01*
X9085800Y8106897D01*
X9085800Y7693104D01*
X9071448Y7658456D01*
X9036800Y7644104D01*
X9030958Y7644453D01*
X9029065Y7644681D01*
X8980602Y7650500D01*
X7869398Y7650500D01*
X7869395Y7650500D01*
X7780943Y7639879D01*
X7780937Y7639878D01*
X7780936Y7639877D01*
X7684786Y7601961D01*
X7640155Y7584360D01*
X7545866Y7512857D01*
X7516258Y7502900D01*
X6580423Y7502900D01*
X6545775Y7517252D01*
X6532026Y7544235D01*
X6523146Y7600305D01*
X6465554Y7713336D01*
X6465549Y7713343D01*
X6375842Y7803050D01*
X6375835Y7803055D01*
X6262808Y7860645D01*
X6262805Y7860646D01*
X6262804Y7860646D01*
X6169019Y7875500D01*
X6169017Y7875500D01*
X5155982Y7875500D01*
X5062199Y7860647D01*
X5062197Y7860647D01*
X5062196Y7860646D01*
X5015436Y7836821D01*
X4959745Y7808445D01*
X4922358Y7805503D01*
X4915255Y7808446D01*
X4838008Y7847805D01*
X4813651Y7876322D01*
X4816593Y7913707D01*
X4873146Y8024696D01*
X4888000Y8118481D01*
X4887999Y8981518D01*
X4873146Y9075304D01*
X4872998Y9075594D01*
X4815554Y9188336D01*
X4815549Y9188343D01*
X4725845Y9278047D01*
X4725842Y9278050D01*
X4667154Y9307954D01*
X4642798Y9336472D01*
X4640400Y9351613D01*
X4640400Y9388186D01*
X4654752Y9422834D01*
X4964667Y9732748D01*
X4999315Y9747100D01*
X7150686Y9747100D01*
X7185334Y9732748D01*
G37*
G04 #@! TD.AperFunction*
G04 #@! TD*
G04 #@! TA.AperFunction,Conductor*
G04 #@! TO.N,GND*
G36*
X29982948Y22985648D02*
G01*
X29997300Y22951000D01*
X29997300Y49000D01*
X29982948Y14352D01*
X29948300Y0D01*
X13970296Y0D01*
X13955538Y6113D01*
X13949786Y3730D01*
X13947300Y3236D01*
X13947300Y5625900D01*
X15383122Y5625900D01*
X15383123Y5625900D01*
X15504076Y5649960D01*
X15513634Y5650901D01*
X15808874Y5650901D01*
X15808876Y5650901D01*
X15861528Y5661373D01*
X15921233Y5701267D01*
X15961127Y5760972D01*
X15971600Y5813623D01*
X15971599Y6108868D01*
X15972541Y6118427D01*
X15996599Y6239374D01*
X15996600Y6239377D01*
X15996600Y6373422D01*
X15996599Y6373429D01*
X15972541Y6494377D01*
X15971599Y6503936D01*
X15971599Y6799175D01*
X15971599Y6799176D01*
X15961127Y6851828D01*
X15950257Y6868096D01*
X15922474Y6909677D01*
X15915158Y6946460D01*
X15935993Y6977642D01*
X15963216Y6985900D01*
X17198122Y6985900D01*
X17198123Y6985900D01*
X17319076Y7009960D01*
X17328634Y7010901D01*
X17623874Y7010901D01*
X17623876Y7010901D01*
X17676528Y7021373D01*
X17736233Y7061267D01*
X17776127Y7120972D01*
X17786600Y7173623D01*
X17786599Y7468868D01*
X17787541Y7478427D01*
X17811599Y7599374D01*
X17811600Y7599377D01*
X17811600Y7733422D01*
X17811599Y7733429D01*
X17787541Y7854377D01*
X17786599Y7863936D01*
X17786599Y8159175D01*
X17786599Y8159176D01*
X17776127Y8211828D01*
X17762888Y8231640D01*
X17736233Y8271534D01*
X17676525Y8311429D01*
X17623882Y8321900D01*
X17623877Y8321900D01*
X17328637Y8321900D01*
X17319078Y8322841D01*
X17198123Y8346900D01*
X17198120Y8346900D01*
X16045600Y8346900D01*
X16010952Y8361252D01*
X15996600Y8395900D01*
X15996600Y12444232D01*
X16010952Y12478880D01*
X16853620Y13321548D01*
X16888268Y13335900D01*
X17676106Y13335900D01*
X17710754Y13321548D01*
X17724163Y13296463D01*
X17744658Y13193426D01*
X17744659Y13193420D01*
X17745600Y13183861D01*
X17745600Y12888626D01*
X17745601Y12888623D01*
X17756073Y12835972D01*
X17771140Y12813423D01*
X17795966Y12776267D01*
X17819881Y12760289D01*
X17855672Y12736373D01*
X17908323Y12725900D01*
X18203565Y12725901D01*
X18213125Y12724959D01*
X18262004Y12715237D01*
X18334077Y12700900D01*
X18468122Y12700900D01*
X18468123Y12700900D01*
X18589076Y12724960D01*
X18598634Y12725901D01*
X18893874Y12725901D01*
X18893876Y12725901D01*
X18946528Y12736373D01*
X19006233Y12776267D01*
X19046127Y12835972D01*
X19056600Y12888623D01*
X19056599Y13183868D01*
X19057539Y13193418D01*
X19078042Y13296492D01*
X19098876Y13327671D01*
X19135658Y13334988D01*
X19166841Y13314152D01*
X19174158Y13296488D01*
X19194659Y13193420D01*
X19195600Y13183861D01*
X19195600Y12888626D01*
X19195601Y12888623D01*
X19206073Y12835972D01*
X19221140Y12813423D01*
X19245966Y12776267D01*
X19269881Y12760289D01*
X19305672Y12736373D01*
X19358323Y12725900D01*
X19653565Y12725901D01*
X19663125Y12724959D01*
X19712004Y12715237D01*
X19784077Y12700900D01*
X20936600Y12700900D01*
X20971248Y12686548D01*
X20985600Y12651900D01*
X20985600Y9933282D01*
X20971248Y9898634D01*
X20952351Y9886883D01*
X20769839Y9824928D01*
X20769826Y9824923D01*
X20499999Y9691858D01*
X20249848Y9524714D01*
X20023653Y9326347D01*
X19825286Y9100152D01*
X19658142Y8850001D01*
X19525078Y8580175D01*
X19525077Y8580172D01*
X19428370Y8295282D01*
X19369676Y8000205D01*
X19350000Y7700001D01*
X19350000Y7700000D01*
X19369676Y7399796D01*
X19427046Y7111373D01*
X19428371Y7104716D01*
X19493947Y6911533D01*
X19525077Y6819829D01*
X19525078Y6819826D01*
X19658142Y6550000D01*
X19825286Y6299849D01*
X20023653Y6073654D01*
X20249848Y5875287D01*
X20342130Y5813627D01*
X20500000Y5708142D01*
X20769828Y5575077D01*
X21054716Y5478371D01*
X21349790Y5419677D01*
X21599965Y5403280D01*
X21649999Y5400000D01*
X21650000Y5400000D01*
X21650001Y5400000D01*
X21692887Y5402811D01*
X21950210Y5419677D01*
X22245284Y5478371D01*
X22530172Y5575077D01*
X22800000Y5708142D01*
X23050151Y5875287D01*
X23276346Y6073654D01*
X23474713Y6299849D01*
X23641858Y6550000D01*
X23774923Y6819828D01*
X23871629Y7104716D01*
X23930323Y7399790D01*
X23950000Y7700000D01*
X23930323Y8000210D01*
X23871629Y8295284D01*
X23774923Y8580172D01*
X23641858Y8850000D01*
X23586394Y8933007D01*
X23474713Y9100152D01*
X23276346Y9326347D01*
X23050151Y9524714D01*
X22800000Y9691858D01*
X22530173Y9824923D01*
X22530160Y9824928D01*
X22379849Y9875953D01*
X22351653Y9900680D01*
X22346600Y9922352D01*
X22346600Y13448420D01*
X22346600Y13448423D01*
X22327516Y13544363D01*
X22322540Y13569383D01*
X22321599Y13578942D01*
X22321599Y13784175D01*
X22321599Y13784176D01*
X22311127Y13836828D01*
X22286167Y13874183D01*
X22271233Y13896534D01*
X22211525Y13936429D01*
X22158882Y13946900D01*
X22158877Y13946900D01*
X22059502Y13946900D01*
X22032279Y13955158D01*
X21988438Y13984452D01*
X21971106Y13991631D01*
X21944588Y14018150D01*
X21944588Y14055653D01*
X21971107Y14082171D01*
X21989858Y14085901D01*
X22158874Y14085901D01*
X22158876Y14085901D01*
X22211528Y14096373D01*
X22271233Y14136267D01*
X22311127Y14195972D01*
X22321600Y14248623D01*
X22321599Y14543868D01*
X22322541Y14553427D01*
X22332979Y14605901D01*
X22346600Y14674377D01*
X22346600Y15353423D01*
X22320449Y15484895D01*
X22269152Y15608738D01*
X22269152Y15608739D01*
X22254858Y15630131D01*
X22246600Y15657354D01*
X22246600Y17230501D01*
X22260952Y17265149D01*
X22295600Y17279501D01*
X22782774Y17279501D01*
X22782776Y17279501D01*
X22835428Y17289973D01*
X22895133Y17329867D01*
X22935027Y17389572D01*
X22945500Y17442223D01*
X22945499Y20196733D01*
X22950223Y20217724D01*
X22966418Y20251882D01*
X23250000Y20850000D01*
X23250000Y22951000D01*
X23264352Y22985648D01*
X23299000Y23000000D01*
X29948300Y23000000D01*
X29982948Y22985648D01*
G37*
G04 #@! TD.AperFunction*
G04 #@! TA.AperFunction,Conductor*
G36*
X19977848Y22985648D02*
G01*
X19992200Y22951000D01*
X19992200Y20849999D01*
X20289382Y20251882D01*
X20294500Y20230079D01*
X20294500Y17442226D01*
X20304973Y17389572D01*
X20344866Y17329867D01*
X20368781Y17313889D01*
X20404572Y17289973D01*
X20457223Y17279500D01*
X21036600Y17279501D01*
X21071248Y17265149D01*
X21085600Y17230501D01*
X21085600Y16015900D01*
X21071248Y15981252D01*
X21036600Y15966900D01*
X19784077Y15966900D01*
X19691835Y15948553D01*
X19663118Y15942841D01*
X19653559Y15941900D01*
X19358325Y15941900D01*
X19305671Y15931427D01*
X19245966Y15891534D01*
X19206071Y15831826D01*
X19195600Y15779183D01*
X19195600Y15483939D01*
X19194659Y15474380D01*
X19174158Y15371313D01*
X19153322Y15340130D01*
X19116540Y15332813D01*
X19085357Y15353649D01*
X19078042Y15371307D01*
X19057539Y15474386D01*
X19056599Y15483936D01*
X19056599Y15779175D01*
X19056599Y15779177D01*
X19046127Y15831828D01*
X19032888Y15851640D01*
X19006233Y15891534D01*
X18946525Y15931429D01*
X18893882Y15941900D01*
X18893877Y15941900D01*
X18598637Y15941900D01*
X18589078Y15942841D01*
X18468123Y15966900D01*
X18334077Y15966900D01*
X18241835Y15948553D01*
X18213118Y15942841D01*
X18203559Y15941900D01*
X17908325Y15941900D01*
X17855671Y15931427D01*
X17795966Y15891534D01*
X17756071Y15831826D01*
X17745600Y15779183D01*
X17745600Y15483939D01*
X17744659Y15474380D01*
X17740904Y15455500D01*
X17720600Y15353423D01*
X17720600Y15353420D01*
X17720600Y14745900D01*
X17706248Y14711252D01*
X17671600Y14696900D01*
X16519077Y14696900D01*
X16420473Y14677287D01*
X16387604Y14670749D01*
X16387603Y14670749D01*
X16263765Y14619454D01*
X16152308Y14544982D01*
X16152307Y14544981D01*
X16057519Y14450192D01*
X14875414Y13268088D01*
X14787518Y13180192D01*
X14712775Y13068332D01*
X14712125Y13066512D01*
X14661752Y12944903D01*
X14661749Y12944893D01*
X14650557Y12888623D01*
X14640085Y12835972D01*
X14635600Y12813423D01*
X14635600Y7823423D01*
X14635600Y7733423D01*
X14635600Y7599377D01*
X14635601Y7599374D01*
X14659659Y7478419D01*
X14660600Y7468860D01*
X14660600Y7263626D01*
X14671073Y7210972D01*
X14710966Y7151267D01*
X14734881Y7135289D01*
X14770672Y7111373D01*
X14823323Y7100900D01*
X14922696Y7100901D01*
X14949918Y7092643D01*
X14973866Y7076642D01*
X14994702Y7045460D01*
X14987386Y7008678D01*
X14956204Y6987842D01*
X14946644Y6986900D01*
X13947300Y6986900D01*
X13947300Y22982600D01*
X13600000Y22982600D01*
X13603048Y22985648D01*
X13637696Y23000000D01*
X19943200Y23000000D01*
X19977848Y22985648D01*
G37*
G04 #@! TD.AperFunction*
G04 #@! TD*
M02*
