G04 #@! TF.GenerationSoftware,KiCad,Pcbnew,8.0.6*
G04 #@! TF.CreationDate,2024-11-27T10:36:13+01:00*
G04 #@! TF.ProjectId,TDR1,54445231-2e6b-4696-9361-645f70636258,0.1*
G04 #@! TF.SameCoordinates,Original*
G04 #@! TF.FileFunction,AssemblyDrawing,Top*
%FSLAX46Y46*%
G04 Gerber Fmt 4.6, Leading zero omitted, Abs format (unit mm)*
G04 Created by KiCad (PCBNEW 8.0.6) date 2024-11-27 10:36:13*
%MOMM*%
%LPD*%
G01*
G04 APERTURE LIST*
%ADD10C,0.150000*%
%ADD11C,0.060000*%
%ADD12C,0.100000*%
%ADD13C,0.127000*%
G04 APERTURE END LIST*
D10*
X16515826Y10485705D02*
X16172969Y10485705D01*
X16344398Y10485705D02*
X16344398Y11285705D01*
X16344398Y11285705D02*
X16287255Y11171420D01*
X16287255Y11171420D02*
X16230112Y11095229D01*
X16230112Y11095229D02*
X16172969Y11057134D01*
X16887255Y11285705D02*
X16944398Y11285705D01*
X16944398Y11285705D02*
X17001541Y11247610D01*
X17001541Y11247610D02*
X17030113Y11209515D01*
X17030113Y11209515D02*
X17058684Y11133324D01*
X17058684Y11133324D02*
X17087255Y10980943D01*
X17087255Y10980943D02*
X17087255Y10790467D01*
X17087255Y10790467D02*
X17058684Y10638086D01*
X17058684Y10638086D02*
X17030113Y10561896D01*
X17030113Y10561896D02*
X17001541Y10523800D01*
X17001541Y10523800D02*
X16944398Y10485705D01*
X16944398Y10485705D02*
X16887255Y10485705D01*
X16887255Y10485705D02*
X16830113Y10523800D01*
X16830113Y10523800D02*
X16801541Y10561896D01*
X16801541Y10561896D02*
X16772970Y10638086D01*
X16772970Y10638086D02*
X16744398Y10790467D01*
X16744398Y10790467D02*
X16744398Y10980943D01*
X16744398Y10980943D02*
X16772970Y11133324D01*
X16772970Y11133324D02*
X16801541Y11209515D01*
X16801541Y11209515D02*
X16830113Y11247610D01*
X16830113Y11247610D02*
X16887255Y11285705D01*
X17458684Y11285705D02*
X17515827Y11285705D01*
X17515827Y11285705D02*
X17572970Y11247610D01*
X17572970Y11247610D02*
X17601542Y11209515D01*
X17601542Y11209515D02*
X17630113Y11133324D01*
X17630113Y11133324D02*
X17658684Y10980943D01*
X17658684Y10980943D02*
X17658684Y10790467D01*
X17658684Y10790467D02*
X17630113Y10638086D01*
X17630113Y10638086D02*
X17601542Y10561896D01*
X17601542Y10561896D02*
X17572970Y10523800D01*
X17572970Y10523800D02*
X17515827Y10485705D01*
X17515827Y10485705D02*
X17458684Y10485705D01*
X17458684Y10485705D02*
X17401542Y10523800D01*
X17401542Y10523800D02*
X17372970Y10561896D01*
X17372970Y10561896D02*
X17344399Y10638086D01*
X17344399Y10638086D02*
X17315827Y10790467D01*
X17315827Y10790467D02*
X17315827Y10980943D01*
X17315827Y10980943D02*
X17344399Y11133324D01*
X17344399Y11133324D02*
X17372970Y11209515D01*
X17372970Y11209515D02*
X17401542Y11247610D01*
X17401542Y11247610D02*
X17458684Y11285705D01*
X17915828Y11019039D02*
X17915828Y10485705D01*
X17915828Y10942848D02*
X17944399Y10980943D01*
X17944399Y10980943D02*
X18001542Y11019039D01*
X18001542Y11019039D02*
X18087256Y11019039D01*
X18087256Y11019039D02*
X18144399Y10980943D01*
X18144399Y10980943D02*
X18172971Y10904753D01*
X18172971Y10904753D02*
X18172971Y10485705D01*
X18658685Y10904753D02*
X18458685Y10904753D01*
X18458685Y10485705D02*
X18458685Y11285705D01*
X18458685Y11285705D02*
X18744399Y11285705D01*
X9557143Y13541039D02*
X9557143Y13007705D01*
X9414285Y13845800D02*
X9271428Y13274372D01*
X9271428Y13274372D02*
X9642857Y13274372D01*
X9871429Y13083896D02*
X9900000Y13045800D01*
X9900000Y13045800D02*
X9871429Y13007705D01*
X9871429Y13007705D02*
X9842857Y13045800D01*
X9842857Y13045800D02*
X9871429Y13083896D01*
X9871429Y13083896D02*
X9871429Y13007705D01*
X10100000Y13807705D02*
X10500000Y13807705D01*
X10500000Y13807705D02*
X10242857Y13007705D01*
X10842857Y13807705D02*
X10900000Y13807705D01*
X10900000Y13807705D02*
X10957143Y13769610D01*
X10957143Y13769610D02*
X10985715Y13731515D01*
X10985715Y13731515D02*
X11014286Y13655324D01*
X11014286Y13655324D02*
X11042857Y13502943D01*
X11042857Y13502943D02*
X11042857Y13312467D01*
X11042857Y13312467D02*
X11014286Y13160086D01*
X11014286Y13160086D02*
X10985715Y13083896D01*
X10985715Y13083896D02*
X10957143Y13045800D01*
X10957143Y13045800D02*
X10900000Y13007705D01*
X10900000Y13007705D02*
X10842857Y13007705D01*
X10842857Y13007705D02*
X10785715Y13045800D01*
X10785715Y13045800D02*
X10757143Y13083896D01*
X10757143Y13083896D02*
X10728572Y13160086D01*
X10728572Y13160086D02*
X10700000Y13312467D01*
X10700000Y13312467D02*
X10700000Y13502943D01*
X10700000Y13502943D02*
X10728572Y13655324D01*
X10728572Y13655324D02*
X10757143Y13731515D01*
X10757143Y13731515D02*
X10785715Y13769610D01*
X10785715Y13769610D02*
X10842857Y13807705D01*
X11300001Y13007705D02*
X11300001Y13807705D01*
X11357144Y13312467D02*
X11528572Y13007705D01*
X11528572Y13541039D02*
X11300001Y13236277D01*
D11*
X10333333Y14618073D02*
X10200000Y14808549D01*
X10104762Y14618073D02*
X10104762Y15018073D01*
X10104762Y15018073D02*
X10257143Y15018073D01*
X10257143Y15018073D02*
X10295238Y14999025D01*
X10295238Y14999025D02*
X10314285Y14979978D01*
X10314285Y14979978D02*
X10333333Y14941882D01*
X10333333Y14941882D02*
X10333333Y14884740D01*
X10333333Y14884740D02*
X10314285Y14846644D01*
X10314285Y14846644D02*
X10295238Y14827597D01*
X10295238Y14827597D02*
X10257143Y14808549D01*
X10257143Y14808549D02*
X10104762Y14808549D01*
X10523809Y14618073D02*
X10600000Y14618073D01*
X10600000Y14618073D02*
X10638095Y14637120D01*
X10638095Y14637120D02*
X10657143Y14656168D01*
X10657143Y14656168D02*
X10695238Y14713311D01*
X10695238Y14713311D02*
X10714285Y14789501D01*
X10714285Y14789501D02*
X10714285Y14941882D01*
X10714285Y14941882D02*
X10695238Y14979978D01*
X10695238Y14979978D02*
X10676190Y14999025D01*
X10676190Y14999025D02*
X10638095Y15018073D01*
X10638095Y15018073D02*
X10561904Y15018073D01*
X10561904Y15018073D02*
X10523809Y14999025D01*
X10523809Y14999025D02*
X10504762Y14979978D01*
X10504762Y14979978D02*
X10485714Y14941882D01*
X10485714Y14941882D02*
X10485714Y14846644D01*
X10485714Y14846644D02*
X10504762Y14808549D01*
X10504762Y14808549D02*
X10523809Y14789501D01*
X10523809Y14789501D02*
X10561904Y14770454D01*
X10561904Y14770454D02*
X10638095Y14770454D01*
X10638095Y14770454D02*
X10676190Y14789501D01*
X10676190Y14789501D02*
X10695238Y14808549D01*
X10695238Y14808549D02*
X10714285Y14846644D01*
D10*
X29016104Y17485716D02*
X29054200Y17457144D01*
X29054200Y17457144D02*
X29092295Y17371430D01*
X29092295Y17371430D02*
X29092295Y17314287D01*
X29092295Y17314287D02*
X29054200Y17228573D01*
X29054200Y17228573D02*
X28978009Y17171430D01*
X28978009Y17171430D02*
X28901819Y17142859D01*
X28901819Y17142859D02*
X28749438Y17114287D01*
X28749438Y17114287D02*
X28635152Y17114287D01*
X28635152Y17114287D02*
X28482771Y17142859D01*
X28482771Y17142859D02*
X28406580Y17171430D01*
X28406580Y17171430D02*
X28330390Y17228573D01*
X28330390Y17228573D02*
X28292295Y17314287D01*
X28292295Y17314287D02*
X28292295Y17371430D01*
X28292295Y17371430D02*
X28330390Y17457144D01*
X28330390Y17457144D02*
X28368485Y17485716D01*
X29092295Y17828573D02*
X29054200Y17771430D01*
X29054200Y17771430D02*
X29016104Y17742859D01*
X29016104Y17742859D02*
X28939914Y17714287D01*
X28939914Y17714287D02*
X28711342Y17714287D01*
X28711342Y17714287D02*
X28635152Y17742859D01*
X28635152Y17742859D02*
X28597057Y17771430D01*
X28597057Y17771430D02*
X28558961Y17828573D01*
X28558961Y17828573D02*
X28558961Y17914287D01*
X28558961Y17914287D02*
X28597057Y17971430D01*
X28597057Y17971430D02*
X28635152Y18000001D01*
X28635152Y18000001D02*
X28711342Y18028573D01*
X28711342Y18028573D02*
X28939914Y18028573D01*
X28939914Y18028573D02*
X29016104Y18000001D01*
X29016104Y18000001D02*
X29054200Y17971430D01*
X29054200Y17971430D02*
X29092295Y17914287D01*
X29092295Y17914287D02*
X29092295Y17828573D01*
X28558961Y18285716D02*
X29092295Y18285716D01*
X28635152Y18285716D02*
X28597057Y18314287D01*
X28597057Y18314287D02*
X28558961Y18371430D01*
X28558961Y18371430D02*
X28558961Y18457144D01*
X28558961Y18457144D02*
X28597057Y18514287D01*
X28597057Y18514287D02*
X28673247Y18542858D01*
X28673247Y18542858D02*
X29092295Y18542858D01*
X28558961Y18828573D02*
X29092295Y18828573D01*
X28635152Y18828573D02*
X28597057Y18857144D01*
X28597057Y18857144D02*
X28558961Y18914287D01*
X28558961Y18914287D02*
X28558961Y19000001D01*
X28558961Y19000001D02*
X28597057Y19057144D01*
X28597057Y19057144D02*
X28673247Y19085715D01*
X28673247Y19085715D02*
X29092295Y19085715D01*
X29168485Y19228572D02*
X29168485Y19685715D01*
X29016104Y20171430D02*
X29054200Y20142858D01*
X29054200Y20142858D02*
X29092295Y20057144D01*
X29092295Y20057144D02*
X29092295Y20000001D01*
X29092295Y20000001D02*
X29054200Y19914287D01*
X29054200Y19914287D02*
X28978009Y19857144D01*
X28978009Y19857144D02*
X28901819Y19828573D01*
X28901819Y19828573D02*
X28749438Y19800001D01*
X28749438Y19800001D02*
X28635152Y19800001D01*
X28635152Y19800001D02*
X28482771Y19828573D01*
X28482771Y19828573D02*
X28406580Y19857144D01*
X28406580Y19857144D02*
X28330390Y19914287D01*
X28330390Y19914287D02*
X28292295Y20000001D01*
X28292295Y20000001D02*
X28292295Y20057144D01*
X28292295Y20057144D02*
X28330390Y20142858D01*
X28330390Y20142858D02*
X28368485Y20171430D01*
X29092295Y20514287D02*
X29054200Y20457144D01*
X29054200Y20457144D02*
X29016104Y20428573D01*
X29016104Y20428573D02*
X28939914Y20400001D01*
X28939914Y20400001D02*
X28711342Y20400001D01*
X28711342Y20400001D02*
X28635152Y20428573D01*
X28635152Y20428573D02*
X28597057Y20457144D01*
X28597057Y20457144D02*
X28558961Y20514287D01*
X28558961Y20514287D02*
X28558961Y20600001D01*
X28558961Y20600001D02*
X28597057Y20657144D01*
X28597057Y20657144D02*
X28635152Y20685715D01*
X28635152Y20685715D02*
X28711342Y20714287D01*
X28711342Y20714287D02*
X28939914Y20714287D01*
X28939914Y20714287D02*
X29016104Y20685715D01*
X29016104Y20685715D02*
X29054200Y20657144D01*
X29054200Y20657144D02*
X29092295Y20600001D01*
X29092295Y20600001D02*
X29092295Y20514287D01*
X29092295Y21228572D02*
X28673247Y21228572D01*
X28673247Y21228572D02*
X28597057Y21200001D01*
X28597057Y21200001D02*
X28558961Y21142858D01*
X28558961Y21142858D02*
X28558961Y21028572D01*
X28558961Y21028572D02*
X28597057Y20971430D01*
X29054200Y21228572D02*
X29092295Y21171430D01*
X29092295Y21171430D02*
X29092295Y21028572D01*
X29092295Y21028572D02*
X29054200Y20971430D01*
X29054200Y20971430D02*
X28978009Y20942858D01*
X28978009Y20942858D02*
X28901819Y20942858D01*
X28901819Y20942858D02*
X28825628Y20971430D01*
X28825628Y20971430D02*
X28787533Y21028572D01*
X28787533Y21028572D02*
X28787533Y21171430D01*
X28787533Y21171430D02*
X28749438Y21228572D01*
X29092295Y21457144D02*
X28558961Y21771429D01*
X28558961Y21457144D02*
X29092295Y21771429D01*
X29092295Y22000001D02*
X28558961Y22000001D01*
X28292295Y22000001D02*
X28330390Y21971429D01*
X28330390Y21971429D02*
X28368485Y22000001D01*
X28368485Y22000001D02*
X28330390Y22028572D01*
X28330390Y22028572D02*
X28292295Y22000001D01*
X28292295Y22000001D02*
X28368485Y22000001D01*
X29092295Y22542857D02*
X28673247Y22542857D01*
X28673247Y22542857D02*
X28597057Y22514286D01*
X28597057Y22514286D02*
X28558961Y22457143D01*
X28558961Y22457143D02*
X28558961Y22342857D01*
X28558961Y22342857D02*
X28597057Y22285715D01*
X29054200Y22542857D02*
X29092295Y22485715D01*
X29092295Y22485715D02*
X29092295Y22342857D01*
X29092295Y22342857D02*
X29054200Y22285715D01*
X29054200Y22285715D02*
X28978009Y22257143D01*
X28978009Y22257143D02*
X28901819Y22257143D01*
X28901819Y22257143D02*
X28825628Y22285715D01*
X28825628Y22285715D02*
X28787533Y22342857D01*
X28787533Y22342857D02*
X28787533Y22485715D01*
X28787533Y22485715D02*
X28749438Y22542857D01*
X29092295Y22914286D02*
X29054200Y22857143D01*
X29054200Y22857143D02*
X28978009Y22828572D01*
X28978009Y22828572D02*
X28292295Y22828572D01*
X14074819Y19446667D02*
X14789104Y19446667D01*
X14789104Y19446667D02*
X14931961Y19399048D01*
X14931961Y19399048D02*
X15027200Y19303810D01*
X15027200Y19303810D02*
X15074819Y19160953D01*
X15074819Y19160953D02*
X15074819Y19065715D01*
X14074819Y19827620D02*
X14074819Y20446667D01*
X14074819Y20446667D02*
X14455771Y20113334D01*
X14455771Y20113334D02*
X14455771Y20256191D01*
X14455771Y20256191D02*
X14503390Y20351429D01*
X14503390Y20351429D02*
X14551009Y20399048D01*
X14551009Y20399048D02*
X14646247Y20446667D01*
X14646247Y20446667D02*
X14884342Y20446667D01*
X14884342Y20446667D02*
X14979580Y20399048D01*
X14979580Y20399048D02*
X15027200Y20351429D01*
X15027200Y20351429D02*
X15074819Y20256191D01*
X15074819Y20256191D02*
X15074819Y19970477D01*
X15074819Y19970477D02*
X15027200Y19875239D01*
X15027200Y19875239D02*
X14979580Y19827620D01*
X5691070Y5175800D02*
X5776785Y5137705D01*
X5776785Y5137705D02*
X5919642Y5137705D01*
X5919642Y5137705D02*
X5976785Y5175800D01*
X5976785Y5175800D02*
X6005356Y5213896D01*
X6005356Y5213896D02*
X6033927Y5290086D01*
X6033927Y5290086D02*
X6033927Y5366277D01*
X6033927Y5366277D02*
X6005356Y5442467D01*
X6005356Y5442467D02*
X5976785Y5480562D01*
X5976785Y5480562D02*
X5919642Y5518658D01*
X5919642Y5518658D02*
X5805356Y5556753D01*
X5805356Y5556753D02*
X5748213Y5594848D01*
X5748213Y5594848D02*
X5719642Y5632943D01*
X5719642Y5632943D02*
X5691070Y5709134D01*
X5691070Y5709134D02*
X5691070Y5785324D01*
X5691070Y5785324D02*
X5719642Y5861515D01*
X5719642Y5861515D02*
X5748213Y5899610D01*
X5748213Y5899610D02*
X5805356Y5937705D01*
X5805356Y5937705D02*
X5948213Y5937705D01*
X5948213Y5937705D02*
X6033927Y5899610D01*
X6291071Y5137705D02*
X6291071Y5937705D01*
X6291071Y5937705D02*
X6633928Y5137705D01*
X6633928Y5137705D02*
X6633928Y5937705D01*
X6862499Y5937705D02*
X7262499Y5937705D01*
X7262499Y5937705D02*
X7005356Y5137705D01*
X7748214Y5671039D02*
X7748214Y5137705D01*
X7605356Y5975800D02*
X7462499Y5404372D01*
X7462499Y5404372D02*
X7833928Y5404372D01*
X8348214Y5137705D02*
X8062500Y5137705D01*
X8062500Y5137705D02*
X8062500Y5937705D01*
X8462499Y5937705D02*
X8662499Y5137705D01*
X8662499Y5137705D02*
X8862499Y5937705D01*
X9405357Y5213896D02*
X9376785Y5175800D01*
X9376785Y5175800D02*
X9291071Y5137705D01*
X9291071Y5137705D02*
X9233928Y5137705D01*
X9233928Y5137705D02*
X9148214Y5175800D01*
X9148214Y5175800D02*
X9091071Y5251991D01*
X9091071Y5251991D02*
X9062500Y5328181D01*
X9062500Y5328181D02*
X9033928Y5480562D01*
X9033928Y5480562D02*
X9033928Y5594848D01*
X9033928Y5594848D02*
X9062500Y5747229D01*
X9062500Y5747229D02*
X9091071Y5823420D01*
X9091071Y5823420D02*
X9148214Y5899610D01*
X9148214Y5899610D02*
X9233928Y5937705D01*
X9233928Y5937705D02*
X9291071Y5937705D01*
X9291071Y5937705D02*
X9376785Y5899610D01*
X9376785Y5899610D02*
X9405357Y5861515D01*
X9633928Y5861515D02*
X9662500Y5899610D01*
X9662500Y5899610D02*
X9719643Y5937705D01*
X9719643Y5937705D02*
X9862500Y5937705D01*
X9862500Y5937705D02*
X9919643Y5899610D01*
X9919643Y5899610D02*
X9948214Y5861515D01*
X9948214Y5861515D02*
X9976785Y5785324D01*
X9976785Y5785324D02*
X9976785Y5709134D01*
X9976785Y5709134D02*
X9948214Y5594848D01*
X9948214Y5594848D02*
X9605357Y5137705D01*
X9605357Y5137705D02*
X9976785Y5137705D01*
X10548214Y5899610D02*
X10491072Y5937705D01*
X10491072Y5937705D02*
X10405357Y5937705D01*
X10405357Y5937705D02*
X10319643Y5899610D01*
X10319643Y5899610D02*
X10262500Y5823420D01*
X10262500Y5823420D02*
X10233929Y5747229D01*
X10233929Y5747229D02*
X10205357Y5594848D01*
X10205357Y5594848D02*
X10205357Y5480562D01*
X10205357Y5480562D02*
X10233929Y5328181D01*
X10233929Y5328181D02*
X10262500Y5251991D01*
X10262500Y5251991D02*
X10319643Y5175800D01*
X10319643Y5175800D02*
X10405357Y5137705D01*
X10405357Y5137705D02*
X10462500Y5137705D01*
X10462500Y5137705D02*
X10548214Y5175800D01*
X10548214Y5175800D02*
X10576786Y5213896D01*
X10576786Y5213896D02*
X10576786Y5480562D01*
X10576786Y5480562D02*
X10462500Y5480562D01*
X11148214Y5137705D02*
X10805357Y5137705D01*
X10976786Y5137705D02*
X10976786Y5937705D01*
X10976786Y5937705D02*
X10919643Y5823420D01*
X10919643Y5823420D02*
X10862500Y5747229D01*
X10862500Y5747229D02*
X10805357Y5709134D01*
X11662501Y5671039D02*
X11662501Y5137705D01*
X11519643Y5975800D02*
X11376786Y5404372D01*
X11376786Y5404372D02*
X11748215Y5404372D01*
X11976787Y5137705D02*
X11976787Y5937705D01*
X11976787Y5937705D02*
X12119644Y5937705D01*
X12119644Y5937705D02*
X12205358Y5899610D01*
X12205358Y5899610D02*
X12262501Y5823420D01*
X12262501Y5823420D02*
X12291072Y5747229D01*
X12291072Y5747229D02*
X12319644Y5594848D01*
X12319644Y5594848D02*
X12319644Y5480562D01*
X12319644Y5480562D02*
X12291072Y5328181D01*
X12291072Y5328181D02*
X12262501Y5251991D01*
X12262501Y5251991D02*
X12205358Y5175800D01*
X12205358Y5175800D02*
X12119644Y5137705D01*
X12119644Y5137705D02*
X11976787Y5137705D01*
X12776787Y5556753D02*
X12862501Y5518658D01*
X12862501Y5518658D02*
X12891072Y5480562D01*
X12891072Y5480562D02*
X12919644Y5404372D01*
X12919644Y5404372D02*
X12919644Y5290086D01*
X12919644Y5290086D02*
X12891072Y5213896D01*
X12891072Y5213896D02*
X12862501Y5175800D01*
X12862501Y5175800D02*
X12805358Y5137705D01*
X12805358Y5137705D02*
X12576787Y5137705D01*
X12576787Y5137705D02*
X12576787Y5937705D01*
X12576787Y5937705D02*
X12776787Y5937705D01*
X12776787Y5937705D02*
X12833930Y5899610D01*
X12833930Y5899610D02*
X12862501Y5861515D01*
X12862501Y5861515D02*
X12891072Y5785324D01*
X12891072Y5785324D02*
X12891072Y5709134D01*
X12891072Y5709134D02*
X12862501Y5632943D01*
X12862501Y5632943D02*
X12833930Y5594848D01*
X12833930Y5594848D02*
X12776787Y5556753D01*
X12776787Y5556753D02*
X12576787Y5556753D01*
X13091072Y5937705D02*
X13291072Y5137705D01*
X13291072Y5137705D02*
X13491072Y5937705D01*
D11*
X9257738Y8118073D02*
X9257738Y7794263D01*
X9257738Y7794263D02*
X9276785Y7756168D01*
X9276785Y7756168D02*
X9295833Y7737120D01*
X9295833Y7737120D02*
X9333928Y7718073D01*
X9333928Y7718073D02*
X9410119Y7718073D01*
X9410119Y7718073D02*
X9448214Y7737120D01*
X9448214Y7737120D02*
X9467261Y7756168D01*
X9467261Y7756168D02*
X9486309Y7794263D01*
X9486309Y7794263D02*
X9486309Y8118073D01*
X9886309Y7718073D02*
X9657738Y7718073D01*
X9772024Y7718073D02*
X9772024Y8118073D01*
X9772024Y8118073D02*
X9733928Y8060930D01*
X9733928Y8060930D02*
X9695833Y8022835D01*
X9695833Y8022835D02*
X9657738Y8003787D01*
D10*
X20723355Y6959248D02*
X20666212Y6997343D01*
X20666212Y6997343D02*
X20637641Y7035439D01*
X20637641Y7035439D02*
X20609069Y7111629D01*
X20609069Y7111629D02*
X20609069Y7149724D01*
X20609069Y7149724D02*
X20637641Y7225915D01*
X20637641Y7225915D02*
X20666212Y7264010D01*
X20666212Y7264010D02*
X20723355Y7302105D01*
X20723355Y7302105D02*
X20837641Y7302105D01*
X20837641Y7302105D02*
X20894784Y7264010D01*
X20894784Y7264010D02*
X20923355Y7225915D01*
X20923355Y7225915D02*
X20951926Y7149724D01*
X20951926Y7149724D02*
X20951926Y7111629D01*
X20951926Y7111629D02*
X20923355Y7035439D01*
X20923355Y7035439D02*
X20894784Y6997343D01*
X20894784Y6997343D02*
X20837641Y6959248D01*
X20837641Y6959248D02*
X20723355Y6959248D01*
X20723355Y6959248D02*
X20666212Y6921153D01*
X20666212Y6921153D02*
X20637641Y6883058D01*
X20637641Y6883058D02*
X20609069Y6806867D01*
X20609069Y6806867D02*
X20609069Y6654486D01*
X20609069Y6654486D02*
X20637641Y6578296D01*
X20637641Y6578296D02*
X20666212Y6540200D01*
X20666212Y6540200D02*
X20723355Y6502105D01*
X20723355Y6502105D02*
X20837641Y6502105D01*
X20837641Y6502105D02*
X20894784Y6540200D01*
X20894784Y6540200D02*
X20923355Y6578296D01*
X20923355Y6578296D02*
X20951926Y6654486D01*
X20951926Y6654486D02*
X20951926Y6806867D01*
X20951926Y6806867D02*
X20923355Y6883058D01*
X20923355Y6883058D02*
X20894784Y6921153D01*
X20894784Y6921153D02*
X20837641Y6959248D01*
X21180498Y7225915D02*
X21209070Y7264010D01*
X21209070Y7264010D02*
X21266213Y7302105D01*
X21266213Y7302105D02*
X21409070Y7302105D01*
X21409070Y7302105D02*
X21466213Y7264010D01*
X21466213Y7264010D02*
X21494784Y7225915D01*
X21494784Y7225915D02*
X21523355Y7149724D01*
X21523355Y7149724D02*
X21523355Y7073534D01*
X21523355Y7073534D02*
X21494784Y6959248D01*
X21494784Y6959248D02*
X21151927Y6502105D01*
X21151927Y6502105D02*
X21523355Y6502105D01*
X22164784Y14655439D02*
X22164784Y14122105D01*
X22021926Y14960200D02*
X21879069Y14388772D01*
X21879069Y14388772D02*
X22250498Y14388772D01*
X22507641Y14122105D02*
X22621927Y14122105D01*
X22621927Y14122105D02*
X22679070Y14160200D01*
X22679070Y14160200D02*
X22707641Y14198296D01*
X22707641Y14198296D02*
X22764784Y14312581D01*
X22764784Y14312581D02*
X22793355Y14464962D01*
X22793355Y14464962D02*
X22793355Y14769724D01*
X22793355Y14769724D02*
X22764784Y14845915D01*
X22764784Y14845915D02*
X22736213Y14884010D01*
X22736213Y14884010D02*
X22679070Y14922105D01*
X22679070Y14922105D02*
X22564784Y14922105D01*
X22564784Y14922105D02*
X22507641Y14884010D01*
X22507641Y14884010D02*
X22479070Y14845915D01*
X22479070Y14845915D02*
X22450498Y14769724D01*
X22450498Y14769724D02*
X22450498Y14579248D01*
X22450498Y14579248D02*
X22479070Y14503058D01*
X22479070Y14503058D02*
X22507641Y14464962D01*
X22507641Y14464962D02*
X22564784Y14426867D01*
X22564784Y14426867D02*
X22679070Y14426867D01*
X22679070Y14426867D02*
X22736213Y14464962D01*
X22736213Y14464962D02*
X22764784Y14503058D01*
X22764784Y14503058D02*
X22793355Y14579248D01*
X23050499Y14198296D02*
X23079070Y14160200D01*
X23079070Y14160200D02*
X23050499Y14122105D01*
X23050499Y14122105D02*
X23021927Y14160200D01*
X23021927Y14160200D02*
X23050499Y14198296D01*
X23050499Y14198296D02*
X23050499Y14122105D01*
X23364784Y14122105D02*
X23479070Y14122105D01*
X23479070Y14122105D02*
X23536213Y14160200D01*
X23536213Y14160200D02*
X23564784Y14198296D01*
X23564784Y14198296D02*
X23621927Y14312581D01*
X23621927Y14312581D02*
X23650498Y14464962D01*
X23650498Y14464962D02*
X23650498Y14769724D01*
X23650498Y14769724D02*
X23621927Y14845915D01*
X23621927Y14845915D02*
X23593356Y14884010D01*
X23593356Y14884010D02*
X23536213Y14922105D01*
X23536213Y14922105D02*
X23421927Y14922105D01*
X23421927Y14922105D02*
X23364784Y14884010D01*
X23364784Y14884010D02*
X23336213Y14845915D01*
X23336213Y14845915D02*
X23307641Y14769724D01*
X23307641Y14769724D02*
X23307641Y14579248D01*
X23307641Y14579248D02*
X23336213Y14503058D01*
X23336213Y14503058D02*
X23364784Y14464962D01*
X23364784Y14464962D02*
X23421927Y14426867D01*
X23421927Y14426867D02*
X23536213Y14426867D01*
X23536213Y14426867D02*
X23593356Y14464962D01*
X23593356Y14464962D02*
X23621927Y14503058D01*
X23621927Y14503058D02*
X23650498Y14579248D01*
X9864284Y13807705D02*
X10064284Y13007705D01*
X10064284Y13007705D02*
X10264284Y13807705D01*
X10749999Y13007705D02*
X10464285Y13007705D01*
X10464285Y13007705D02*
X10464285Y13807705D01*
X10949999Y13007705D02*
X10949999Y13807705D01*
X10949999Y13807705D02*
X11149999Y13236277D01*
X11149999Y13236277D02*
X11349999Y13807705D01*
X11349999Y13807705D02*
X11349999Y13007705D01*
X11549998Y13807705D02*
X11892856Y13807705D01*
X11721427Y13007705D02*
X11721427Y13807705D01*
X12407141Y13769610D02*
X12349999Y13807705D01*
X12349999Y13807705D02*
X12264284Y13807705D01*
X12264284Y13807705D02*
X12178570Y13769610D01*
X12178570Y13769610D02*
X12121427Y13693420D01*
X12121427Y13693420D02*
X12092856Y13617229D01*
X12092856Y13617229D02*
X12064284Y13464848D01*
X12064284Y13464848D02*
X12064284Y13350562D01*
X12064284Y13350562D02*
X12092856Y13198181D01*
X12092856Y13198181D02*
X12121427Y13121991D01*
X12121427Y13121991D02*
X12178570Y13045800D01*
X12178570Y13045800D02*
X12264284Y13007705D01*
X12264284Y13007705D02*
X12321427Y13007705D01*
X12321427Y13007705D02*
X12407141Y13045800D01*
X12407141Y13045800D02*
X12435713Y13083896D01*
X12435713Y13083896D02*
X12435713Y13350562D01*
X12435713Y13350562D02*
X12321427Y13350562D01*
X13007141Y13007705D02*
X12664284Y13007705D01*
X12835713Y13007705D02*
X12835713Y13807705D01*
X12835713Y13807705D02*
X12778570Y13693420D01*
X12778570Y13693420D02*
X12721427Y13617229D01*
X12721427Y13617229D02*
X12664284Y13579134D01*
X13207142Y13807705D02*
X13578570Y13807705D01*
X13578570Y13807705D02*
X13378570Y13502943D01*
X13378570Y13502943D02*
X13464285Y13502943D01*
X13464285Y13502943D02*
X13521428Y13464848D01*
X13521428Y13464848D02*
X13549999Y13426753D01*
X13549999Y13426753D02*
X13578570Y13350562D01*
X13578570Y13350562D02*
X13578570Y13160086D01*
X13578570Y13160086D02*
X13549999Y13083896D01*
X13549999Y13083896D02*
X13521428Y13045800D01*
X13521428Y13045800D02*
X13464285Y13007705D01*
X13464285Y13007705D02*
X13292856Y13007705D01*
X13292856Y13007705D02*
X13235713Y13045800D01*
X13235713Y13045800D02*
X13207142Y13083896D01*
X13949999Y13807705D02*
X14007142Y13807705D01*
X14007142Y13807705D02*
X14064285Y13769610D01*
X14064285Y13769610D02*
X14092857Y13731515D01*
X14092857Y13731515D02*
X14121428Y13655324D01*
X14121428Y13655324D02*
X14149999Y13502943D01*
X14149999Y13502943D02*
X14149999Y13312467D01*
X14149999Y13312467D02*
X14121428Y13160086D01*
X14121428Y13160086D02*
X14092857Y13083896D01*
X14092857Y13083896D02*
X14064285Y13045800D01*
X14064285Y13045800D02*
X14007142Y13007705D01*
X14007142Y13007705D02*
X13949999Y13007705D01*
X13949999Y13007705D02*
X13892857Y13045800D01*
X13892857Y13045800D02*
X13864285Y13083896D01*
X13864285Y13083896D02*
X13835714Y13160086D01*
X13835714Y13160086D02*
X13807142Y13312467D01*
X13807142Y13312467D02*
X13807142Y13502943D01*
X13807142Y13502943D02*
X13835714Y13655324D01*
X13835714Y13655324D02*
X13864285Y13731515D01*
X13864285Y13731515D02*
X13892857Y13769610D01*
X13892857Y13769610D02*
X13949999Y13807705D01*
X14521428Y13807705D02*
X14578571Y13807705D01*
X14578571Y13807705D02*
X14635714Y13769610D01*
X14635714Y13769610D02*
X14664286Y13731515D01*
X14664286Y13731515D02*
X14692857Y13655324D01*
X14692857Y13655324D02*
X14721428Y13502943D01*
X14721428Y13502943D02*
X14721428Y13312467D01*
X14721428Y13312467D02*
X14692857Y13160086D01*
X14692857Y13160086D02*
X14664286Y13083896D01*
X14664286Y13083896D02*
X14635714Y13045800D01*
X14635714Y13045800D02*
X14578571Y13007705D01*
X14578571Y13007705D02*
X14521428Y13007705D01*
X14521428Y13007705D02*
X14464286Y13045800D01*
X14464286Y13045800D02*
X14435714Y13083896D01*
X14435714Y13083896D02*
X14407143Y13160086D01*
X14407143Y13160086D02*
X14378571Y13312467D01*
X14378571Y13312467D02*
X14378571Y13502943D01*
X14378571Y13502943D02*
X14407143Y13655324D01*
X14407143Y13655324D02*
X14435714Y13731515D01*
X14435714Y13731515D02*
X14464286Y13769610D01*
X14464286Y13769610D02*
X14521428Y13807705D01*
X14978572Y13312467D02*
X15435715Y13312467D01*
X16035714Y13769610D02*
X15978572Y13807705D01*
X15978572Y13807705D02*
X15892857Y13807705D01*
X15892857Y13807705D02*
X15807143Y13769610D01*
X15807143Y13769610D02*
X15750000Y13693420D01*
X15750000Y13693420D02*
X15721429Y13617229D01*
X15721429Y13617229D02*
X15692857Y13464848D01*
X15692857Y13464848D02*
X15692857Y13350562D01*
X15692857Y13350562D02*
X15721429Y13198181D01*
X15721429Y13198181D02*
X15750000Y13121991D01*
X15750000Y13121991D02*
X15807143Y13045800D01*
X15807143Y13045800D02*
X15892857Y13007705D01*
X15892857Y13007705D02*
X15950000Y13007705D01*
X15950000Y13007705D02*
X16035714Y13045800D01*
X16035714Y13045800D02*
X16064286Y13083896D01*
X16064286Y13083896D02*
X16064286Y13350562D01*
X16064286Y13350562D02*
X15950000Y13350562D01*
X16292857Y13045800D02*
X16378572Y13007705D01*
X16378572Y13007705D02*
X16521429Y13007705D01*
X16521429Y13007705D02*
X16578572Y13045800D01*
X16578572Y13045800D02*
X16607143Y13083896D01*
X16607143Y13083896D02*
X16635714Y13160086D01*
X16635714Y13160086D02*
X16635714Y13236277D01*
X16635714Y13236277D02*
X16607143Y13312467D01*
X16607143Y13312467D02*
X16578572Y13350562D01*
X16578572Y13350562D02*
X16521429Y13388658D01*
X16521429Y13388658D02*
X16407143Y13426753D01*
X16407143Y13426753D02*
X16350000Y13464848D01*
X16350000Y13464848D02*
X16321429Y13502943D01*
X16321429Y13502943D02*
X16292857Y13579134D01*
X16292857Y13579134D02*
X16292857Y13655324D01*
X16292857Y13655324D02*
X16321429Y13731515D01*
X16321429Y13731515D02*
X16350000Y13769610D01*
X16350000Y13769610D02*
X16407143Y13807705D01*
X16407143Y13807705D02*
X16550000Y13807705D01*
X16550000Y13807705D02*
X16635714Y13769610D01*
X17007143Y13807705D02*
X17064286Y13807705D01*
X17064286Y13807705D02*
X17121429Y13769610D01*
X17121429Y13769610D02*
X17150001Y13731515D01*
X17150001Y13731515D02*
X17178572Y13655324D01*
X17178572Y13655324D02*
X17207143Y13502943D01*
X17207143Y13502943D02*
X17207143Y13312467D01*
X17207143Y13312467D02*
X17178572Y13160086D01*
X17178572Y13160086D02*
X17150001Y13083896D01*
X17150001Y13083896D02*
X17121429Y13045800D01*
X17121429Y13045800D02*
X17064286Y13007705D01*
X17064286Y13007705D02*
X17007143Y13007705D01*
X17007143Y13007705D02*
X16950001Y13045800D01*
X16950001Y13045800D02*
X16921429Y13083896D01*
X16921429Y13083896D02*
X16892858Y13160086D01*
X16892858Y13160086D02*
X16864286Y13312467D01*
X16864286Y13312467D02*
X16864286Y13502943D01*
X16864286Y13502943D02*
X16892858Y13655324D01*
X16892858Y13655324D02*
X16921429Y13731515D01*
X16921429Y13731515D02*
X16950001Y13769610D01*
X16950001Y13769610D02*
X17007143Y13807705D01*
X17550001Y13464848D02*
X17492858Y13502943D01*
X17492858Y13502943D02*
X17464287Y13541039D01*
X17464287Y13541039D02*
X17435715Y13617229D01*
X17435715Y13617229D02*
X17435715Y13655324D01*
X17435715Y13655324D02*
X17464287Y13731515D01*
X17464287Y13731515D02*
X17492858Y13769610D01*
X17492858Y13769610D02*
X17550001Y13807705D01*
X17550001Y13807705D02*
X17664287Y13807705D01*
X17664287Y13807705D02*
X17721430Y13769610D01*
X17721430Y13769610D02*
X17750001Y13731515D01*
X17750001Y13731515D02*
X17778572Y13655324D01*
X17778572Y13655324D02*
X17778572Y13617229D01*
X17778572Y13617229D02*
X17750001Y13541039D01*
X17750001Y13541039D02*
X17721430Y13502943D01*
X17721430Y13502943D02*
X17664287Y13464848D01*
X17664287Y13464848D02*
X17550001Y13464848D01*
X17550001Y13464848D02*
X17492858Y13426753D01*
X17492858Y13426753D02*
X17464287Y13388658D01*
X17464287Y13388658D02*
X17435715Y13312467D01*
X17435715Y13312467D02*
X17435715Y13160086D01*
X17435715Y13160086D02*
X17464287Y13083896D01*
X17464287Y13083896D02*
X17492858Y13045800D01*
X17492858Y13045800D02*
X17550001Y13007705D01*
X17550001Y13007705D02*
X17664287Y13007705D01*
X17664287Y13007705D02*
X17721430Y13045800D01*
X17721430Y13045800D02*
X17750001Y13083896D01*
X17750001Y13083896D02*
X17778572Y13160086D01*
X17778572Y13160086D02*
X17778572Y13312467D01*
X17778572Y13312467D02*
X17750001Y13388658D01*
X17750001Y13388658D02*
X17721430Y13426753D01*
X17721430Y13426753D02*
X17664287Y13464848D01*
D11*
X13554762Y14618073D02*
X13554762Y15018073D01*
X13554762Y15018073D02*
X13650000Y15018073D01*
X13650000Y15018073D02*
X13707143Y14999025D01*
X13707143Y14999025D02*
X13745238Y14960930D01*
X13745238Y14960930D02*
X13764285Y14922835D01*
X13764285Y14922835D02*
X13783333Y14846644D01*
X13783333Y14846644D02*
X13783333Y14789501D01*
X13783333Y14789501D02*
X13764285Y14713311D01*
X13764285Y14713311D02*
X13745238Y14675216D01*
X13745238Y14675216D02*
X13707143Y14637120D01*
X13707143Y14637120D02*
X13650000Y14618073D01*
X13650000Y14618073D02*
X13554762Y14618073D01*
X14164285Y14618073D02*
X13935714Y14618073D01*
X14050000Y14618073D02*
X14050000Y15018073D01*
X14050000Y15018073D02*
X14011904Y14960930D01*
X14011904Y14960930D02*
X13973809Y14922835D01*
X13973809Y14922835D02*
X13935714Y14903787D01*
D10*
X22913243Y1088153D02*
X22998957Y1050058D01*
X22998957Y1050058D02*
X23027528Y1011962D01*
X23027528Y1011962D02*
X23056100Y935772D01*
X23056100Y935772D02*
X23056100Y821486D01*
X23056100Y821486D02*
X23027528Y745296D01*
X23027528Y745296D02*
X22998957Y707200D01*
X22998957Y707200D02*
X22941814Y669105D01*
X22941814Y669105D02*
X22713243Y669105D01*
X22713243Y669105D02*
X22713243Y1469105D01*
X22713243Y1469105D02*
X22913243Y1469105D01*
X22913243Y1469105D02*
X22970386Y1431010D01*
X22970386Y1431010D02*
X22998957Y1392915D01*
X22998957Y1392915D02*
X23027528Y1316724D01*
X23027528Y1316724D02*
X23027528Y1240534D01*
X23027528Y1240534D02*
X22998957Y1164343D01*
X22998957Y1164343D02*
X22970386Y1126248D01*
X22970386Y1126248D02*
X22913243Y1088153D01*
X22913243Y1088153D02*
X22713243Y1088153D01*
X23313243Y669105D02*
X23313243Y1469105D01*
X23313243Y1469105D02*
X23656100Y669105D01*
X23656100Y669105D02*
X23656100Y1469105D01*
X24284671Y745296D02*
X24256099Y707200D01*
X24256099Y707200D02*
X24170385Y669105D01*
X24170385Y669105D02*
X24113242Y669105D01*
X24113242Y669105D02*
X24027528Y707200D01*
X24027528Y707200D02*
X23970385Y783391D01*
X23970385Y783391D02*
X23941814Y859581D01*
X23941814Y859581D02*
X23913242Y1011962D01*
X23913242Y1011962D02*
X23913242Y1126248D01*
X23913242Y1126248D02*
X23941814Y1278629D01*
X23941814Y1278629D02*
X23970385Y1354820D01*
X23970385Y1354820D02*
X24027528Y1431010D01*
X24027528Y1431010D02*
X24113242Y1469105D01*
X24113242Y1469105D02*
X24170385Y1469105D01*
X24170385Y1469105D02*
X24256099Y1431010D01*
X24256099Y1431010D02*
X24284671Y1392915D01*
X24398957Y592915D02*
X24856099Y592915D01*
X24998957Y669105D02*
X24998957Y1469105D01*
X24998957Y1469105D02*
X25198957Y897677D01*
X25198957Y897677D02*
X25398957Y1469105D01*
X25398957Y1469105D02*
X25398957Y669105D01*
X25656099Y897677D02*
X25941814Y897677D01*
X25598956Y669105D02*
X25798956Y1469105D01*
X25798956Y1469105D02*
X25998956Y669105D01*
X26484671Y669105D02*
X26198957Y669105D01*
X26198957Y669105D02*
X26198957Y1469105D01*
X26684671Y1088153D02*
X26884671Y1088153D01*
X26970385Y669105D02*
X26684671Y669105D01*
X26684671Y669105D02*
X26684671Y1469105D01*
X26684671Y1469105D02*
X26970385Y1469105D01*
X27084671Y592915D02*
X27541813Y592915D01*
X27684671Y669105D02*
X27684671Y1469105D01*
X27684671Y1469105D02*
X27913242Y1469105D01*
X27913242Y1469105D02*
X27970385Y1431010D01*
X27970385Y1431010D02*
X27998956Y1392915D01*
X27998956Y1392915D02*
X28027528Y1316724D01*
X28027528Y1316724D02*
X28027528Y1202439D01*
X28027528Y1202439D02*
X27998956Y1126248D01*
X27998956Y1126248D02*
X27970385Y1088153D01*
X27970385Y1088153D02*
X27913242Y1050058D01*
X27913242Y1050058D02*
X27684671Y1050058D01*
X28627528Y745296D02*
X28598956Y707200D01*
X28598956Y707200D02*
X28513242Y669105D01*
X28513242Y669105D02*
X28456099Y669105D01*
X28456099Y669105D02*
X28370385Y707200D01*
X28370385Y707200D02*
X28313242Y783391D01*
X28313242Y783391D02*
X28284671Y859581D01*
X28284671Y859581D02*
X28256099Y1011962D01*
X28256099Y1011962D02*
X28256099Y1126248D01*
X28256099Y1126248D02*
X28284671Y1278629D01*
X28284671Y1278629D02*
X28313242Y1354820D01*
X28313242Y1354820D02*
X28370385Y1431010D01*
X28370385Y1431010D02*
X28456099Y1469105D01*
X28456099Y1469105D02*
X28513242Y1469105D01*
X28513242Y1469105D02*
X28598956Y1431010D01*
X28598956Y1431010D02*
X28627528Y1392915D01*
X29084671Y1088153D02*
X29170385Y1050058D01*
X29170385Y1050058D02*
X29198956Y1011962D01*
X29198956Y1011962D02*
X29227528Y935772D01*
X29227528Y935772D02*
X29227528Y821486D01*
X29227528Y821486D02*
X29198956Y745296D01*
X29198956Y745296D02*
X29170385Y707200D01*
X29170385Y707200D02*
X29113242Y669105D01*
X29113242Y669105D02*
X28884671Y669105D01*
X28884671Y669105D02*
X28884671Y1469105D01*
X28884671Y1469105D02*
X29084671Y1469105D01*
X29084671Y1469105D02*
X29141814Y1431010D01*
X29141814Y1431010D02*
X29170385Y1392915D01*
X29170385Y1392915D02*
X29198956Y1316724D01*
X29198956Y1316724D02*
X29198956Y1240534D01*
X29198956Y1240534D02*
X29170385Y1164343D01*
X29170385Y1164343D02*
X29141814Y1126248D01*
X29141814Y1126248D02*
X29084671Y1088153D01*
X29084671Y1088153D02*
X28884671Y1088153D01*
X8033326Y5835705D02*
X7690469Y5835705D01*
X7861898Y5835705D02*
X7861898Y6635705D01*
X7861898Y6635705D02*
X7804755Y6521420D01*
X7804755Y6521420D02*
X7747612Y6445229D01*
X7747612Y6445229D02*
X7690469Y6407134D01*
X8290470Y5911896D02*
X8319041Y5873800D01*
X8319041Y5873800D02*
X8290470Y5835705D01*
X8290470Y5835705D02*
X8261898Y5873800D01*
X8261898Y5873800D02*
X8290470Y5911896D01*
X8290470Y5911896D02*
X8290470Y5835705D01*
X8547612Y6559515D02*
X8576184Y6597610D01*
X8576184Y6597610D02*
X8633327Y6635705D01*
X8633327Y6635705D02*
X8776184Y6635705D01*
X8776184Y6635705D02*
X8833327Y6597610D01*
X8833327Y6597610D02*
X8861898Y6559515D01*
X8861898Y6559515D02*
X8890469Y6483324D01*
X8890469Y6483324D02*
X8890469Y6407134D01*
X8890469Y6407134D02*
X8861898Y6292848D01*
X8861898Y6292848D02*
X8519041Y5835705D01*
X8519041Y5835705D02*
X8890469Y5835705D01*
X9147613Y5835705D02*
X9147613Y6635705D01*
X9204756Y6140467D02*
X9376184Y5835705D01*
X9376184Y6369039D02*
X9147613Y6064277D01*
X10407143Y24562296D02*
X10407143Y25209915D01*
X10407143Y25209915D02*
X10378572Y25286105D01*
X10378572Y25286105D02*
X10350001Y25324200D01*
X10350001Y25324200D02*
X10292858Y25362296D01*
X10292858Y25362296D02*
X10178572Y25362296D01*
X10178572Y25362296D02*
X10121429Y25324200D01*
X10121429Y25324200D02*
X10092858Y25286105D01*
X10092858Y25286105D02*
X10064286Y25209915D01*
X10064286Y25209915D02*
X10064286Y24562296D01*
X9807144Y25324200D02*
X9721430Y25362296D01*
X9721430Y25362296D02*
X9578572Y25362296D01*
X9578572Y25362296D02*
X9521430Y25324200D01*
X9521430Y25324200D02*
X9492858Y25286105D01*
X9492858Y25286105D02*
X9464287Y25209915D01*
X9464287Y25209915D02*
X9464287Y25133724D01*
X9464287Y25133724D02*
X9492858Y25057534D01*
X9492858Y25057534D02*
X9521430Y25019439D01*
X9521430Y25019439D02*
X9578572Y24981343D01*
X9578572Y24981343D02*
X9692858Y24943248D01*
X9692858Y24943248D02*
X9750001Y24905153D01*
X9750001Y24905153D02*
X9778572Y24867058D01*
X9778572Y24867058D02*
X9807144Y24790867D01*
X9807144Y24790867D02*
X9807144Y24714677D01*
X9807144Y24714677D02*
X9778572Y24638486D01*
X9778572Y24638486D02*
X9750001Y24600391D01*
X9750001Y24600391D02*
X9692858Y24562296D01*
X9692858Y24562296D02*
X9550001Y24562296D01*
X9550001Y24562296D02*
X9464287Y24600391D01*
X9007143Y24943248D02*
X8921429Y24981343D01*
X8921429Y24981343D02*
X8892858Y25019439D01*
X8892858Y25019439D02*
X8864286Y25095629D01*
X8864286Y25095629D02*
X8864286Y25209915D01*
X8864286Y25209915D02*
X8892858Y25286105D01*
X8892858Y25286105D02*
X8921429Y25324200D01*
X8921429Y25324200D02*
X8978572Y25362296D01*
X8978572Y25362296D02*
X9207143Y25362296D01*
X9207143Y25362296D02*
X9207143Y24562296D01*
X9207143Y24562296D02*
X9007143Y24562296D01*
X9007143Y24562296D02*
X8950001Y24600391D01*
X8950001Y24600391D02*
X8921429Y24638486D01*
X8921429Y24638486D02*
X8892858Y24714677D01*
X8892858Y24714677D02*
X8892858Y24790867D01*
X8892858Y24790867D02*
X8921429Y24867058D01*
X8921429Y24867058D02*
X8950001Y24905153D01*
X8950001Y24905153D02*
X9007143Y24943248D01*
X9007143Y24943248D02*
X9207143Y24943248D01*
X8350001Y24828962D02*
X8350001Y25362296D01*
X8492858Y24524200D02*
X8635715Y25095629D01*
X8635715Y25095629D02*
X8264286Y25095629D01*
X7721429Y25362296D02*
X8064286Y25362296D01*
X7892857Y25362296D02*
X7892857Y24562296D01*
X7892857Y24562296D02*
X7950000Y24676581D01*
X7950000Y24676581D02*
X8007143Y24752772D01*
X8007143Y24752772D02*
X8064286Y24790867D01*
X7521428Y24562296D02*
X7150000Y24562296D01*
X7150000Y24562296D02*
X7350000Y24867058D01*
X7350000Y24867058D02*
X7264285Y24867058D01*
X7264285Y24867058D02*
X7207143Y24905153D01*
X7207143Y24905153D02*
X7178571Y24943248D01*
X7178571Y24943248D02*
X7150000Y25019439D01*
X7150000Y25019439D02*
X7150000Y25209915D01*
X7150000Y25209915D02*
X7178571Y25286105D01*
X7178571Y25286105D02*
X7207143Y25324200D01*
X7207143Y25324200D02*
X7264285Y25362296D01*
X7264285Y25362296D02*
X7435714Y25362296D01*
X7435714Y25362296D02*
X7492857Y25324200D01*
X7492857Y25324200D02*
X7521428Y25286105D01*
X6607142Y24562296D02*
X6892856Y24562296D01*
X6892856Y24562296D02*
X6921428Y24943248D01*
X6921428Y24943248D02*
X6892856Y24905153D01*
X6892856Y24905153D02*
X6835714Y24867058D01*
X6835714Y24867058D02*
X6692856Y24867058D01*
X6692856Y24867058D02*
X6635714Y24905153D01*
X6635714Y24905153D02*
X6607142Y24943248D01*
X6607142Y24943248D02*
X6578571Y25019439D01*
X6578571Y25019439D02*
X6578571Y25209915D01*
X6578571Y25209915D02*
X6607142Y25286105D01*
X6607142Y25286105D02*
X6635714Y25324200D01*
X6635714Y25324200D02*
X6692856Y25362296D01*
X6692856Y25362296D02*
X6835714Y25362296D01*
X6835714Y25362296D02*
X6892856Y25324200D01*
X6892856Y25324200D02*
X6921428Y25286105D01*
X6321427Y25057534D02*
X5864285Y25057534D01*
X5264285Y24600391D02*
X5321428Y24562296D01*
X5321428Y24562296D02*
X5407142Y24562296D01*
X5407142Y24562296D02*
X5492856Y24600391D01*
X5492856Y24600391D02*
X5549999Y24676581D01*
X5549999Y24676581D02*
X5578570Y24752772D01*
X5578570Y24752772D02*
X5607142Y24905153D01*
X5607142Y24905153D02*
X5607142Y25019439D01*
X5607142Y25019439D02*
X5578570Y25171820D01*
X5578570Y25171820D02*
X5549999Y25248010D01*
X5549999Y25248010D02*
X5492856Y25324200D01*
X5492856Y25324200D02*
X5407142Y25362296D01*
X5407142Y25362296D02*
X5349999Y25362296D01*
X5349999Y25362296D02*
X5264285Y25324200D01*
X5264285Y25324200D02*
X5235713Y25286105D01*
X5235713Y25286105D02*
X5235713Y25019439D01*
X5235713Y25019439D02*
X5349999Y25019439D01*
X4778570Y24943248D02*
X4978570Y24943248D01*
X4978570Y25362296D02*
X4978570Y24562296D01*
X4978570Y24562296D02*
X4692856Y24562296D01*
X4464284Y25057534D02*
X4007142Y25057534D01*
X3749999Y25133724D02*
X3464285Y25133724D01*
X3807142Y25362296D02*
X3607142Y24562296D01*
X3607142Y24562296D02*
X3407142Y25362296D01*
X7283333Y19954820D02*
X7283333Y20669105D01*
X7283333Y20669105D02*
X7330952Y20811962D01*
X7330952Y20811962D02*
X7426190Y20907200D01*
X7426190Y20907200D02*
X7569047Y20954820D01*
X7569047Y20954820D02*
X7664285Y20954820D01*
X6854761Y20050058D02*
X6807142Y20002439D01*
X6807142Y20002439D02*
X6711904Y19954820D01*
X6711904Y19954820D02*
X6473809Y19954820D01*
X6473809Y19954820D02*
X6378571Y20002439D01*
X6378571Y20002439D02*
X6330952Y20050058D01*
X6330952Y20050058D02*
X6283333Y20145296D01*
X6283333Y20145296D02*
X6283333Y20240534D01*
X6283333Y20240534D02*
X6330952Y20383391D01*
X6330952Y20383391D02*
X6902380Y20954820D01*
X6902380Y20954820D02*
X6283333Y20954820D01*
X16506926Y9042105D02*
X16164069Y9042105D01*
X16335498Y9042105D02*
X16335498Y9842105D01*
X16335498Y9842105D02*
X16278355Y9727820D01*
X16278355Y9727820D02*
X16221212Y9651629D01*
X16221212Y9651629D02*
X16164069Y9613534D01*
X16878355Y9842105D02*
X16935498Y9842105D01*
X16935498Y9842105D02*
X16992641Y9804010D01*
X16992641Y9804010D02*
X17021213Y9765915D01*
X17021213Y9765915D02*
X17049784Y9689724D01*
X17049784Y9689724D02*
X17078355Y9537343D01*
X17078355Y9537343D02*
X17078355Y9346867D01*
X17078355Y9346867D02*
X17049784Y9194486D01*
X17049784Y9194486D02*
X17021213Y9118296D01*
X17021213Y9118296D02*
X16992641Y9080200D01*
X16992641Y9080200D02*
X16935498Y9042105D01*
X16935498Y9042105D02*
X16878355Y9042105D01*
X16878355Y9042105D02*
X16821213Y9080200D01*
X16821213Y9080200D02*
X16792641Y9118296D01*
X16792641Y9118296D02*
X16764070Y9194486D01*
X16764070Y9194486D02*
X16735498Y9346867D01*
X16735498Y9346867D02*
X16735498Y9537343D01*
X16735498Y9537343D02*
X16764070Y9689724D01*
X16764070Y9689724D02*
X16792641Y9765915D01*
X16792641Y9765915D02*
X16821213Y9804010D01*
X16821213Y9804010D02*
X16878355Y9842105D01*
X17449784Y9842105D02*
X17506927Y9842105D01*
X17506927Y9842105D02*
X17564070Y9804010D01*
X17564070Y9804010D02*
X17592642Y9765915D01*
X17592642Y9765915D02*
X17621213Y9689724D01*
X17621213Y9689724D02*
X17649784Y9537343D01*
X17649784Y9537343D02*
X17649784Y9346867D01*
X17649784Y9346867D02*
X17621213Y9194486D01*
X17621213Y9194486D02*
X17592642Y9118296D01*
X17592642Y9118296D02*
X17564070Y9080200D01*
X17564070Y9080200D02*
X17506927Y9042105D01*
X17506927Y9042105D02*
X17449784Y9042105D01*
X17449784Y9042105D02*
X17392642Y9080200D01*
X17392642Y9080200D02*
X17364070Y9118296D01*
X17364070Y9118296D02*
X17335499Y9194486D01*
X17335499Y9194486D02*
X17306927Y9346867D01*
X17306927Y9346867D02*
X17306927Y9537343D01*
X17306927Y9537343D02*
X17335499Y9689724D01*
X17335499Y9689724D02*
X17364070Y9765915D01*
X17364070Y9765915D02*
X17392642Y9804010D01*
X17392642Y9804010D02*
X17449784Y9842105D01*
X17906928Y9575439D02*
X17906928Y9042105D01*
X17906928Y9499248D02*
X17935499Y9537343D01*
X17935499Y9537343D02*
X17992642Y9575439D01*
X17992642Y9575439D02*
X18078356Y9575439D01*
X18078356Y9575439D02*
X18135499Y9537343D01*
X18135499Y9537343D02*
X18164071Y9461153D01*
X18164071Y9461153D02*
X18164071Y9042105D01*
X18649785Y9461153D02*
X18449785Y9461153D01*
X18449785Y9042105D02*
X18449785Y9842105D01*
X18449785Y9842105D02*
X18735499Y9842105D01*
X16480395Y10127227D02*
X16480395Y9784370D01*
X16480395Y9955799D02*
X15680395Y9955799D01*
X15680395Y9955799D02*
X15794680Y9898656D01*
X15794680Y9898656D02*
X15870871Y9841513D01*
X15870871Y9841513D02*
X15908966Y9784370D01*
X15680395Y10327228D02*
X15680395Y10698656D01*
X15680395Y10698656D02*
X15985157Y10498656D01*
X15985157Y10498656D02*
X15985157Y10584371D01*
X15985157Y10584371D02*
X16023252Y10641513D01*
X16023252Y10641513D02*
X16061347Y10670085D01*
X16061347Y10670085D02*
X16137538Y10698656D01*
X16137538Y10698656D02*
X16328014Y10698656D01*
X16328014Y10698656D02*
X16404204Y10670085D01*
X16404204Y10670085D02*
X16442300Y10641513D01*
X16442300Y10641513D02*
X16480395Y10584371D01*
X16480395Y10584371D02*
X16480395Y10412942D01*
X16480395Y10412942D02*
X16442300Y10355799D01*
X16442300Y10355799D02*
X16404204Y10327228D01*
X15680395Y11070085D02*
X15680395Y11127228D01*
X15680395Y11127228D02*
X15718490Y11184371D01*
X15718490Y11184371D02*
X15756585Y11212942D01*
X15756585Y11212942D02*
X15832776Y11241514D01*
X15832776Y11241514D02*
X15985157Y11270085D01*
X15985157Y11270085D02*
X16175633Y11270085D01*
X16175633Y11270085D02*
X16328014Y11241514D01*
X16328014Y11241514D02*
X16404204Y11212942D01*
X16404204Y11212942D02*
X16442300Y11184371D01*
X16442300Y11184371D02*
X16480395Y11127228D01*
X16480395Y11127228D02*
X16480395Y11070085D01*
X16480395Y11070085D02*
X16442300Y11012942D01*
X16442300Y11012942D02*
X16404204Y10984371D01*
X16404204Y10984371D02*
X16328014Y10955800D01*
X16328014Y10955800D02*
X16175633Y10927228D01*
X16175633Y10927228D02*
X15985157Y10927228D01*
X15985157Y10927228D02*
X15832776Y10955800D01*
X15832776Y10955800D02*
X15756585Y10984371D01*
X15756585Y10984371D02*
X15718490Y11012942D01*
X15718490Y11012942D02*
X15680395Y11070085D01*
X5522969Y9469515D02*
X5551541Y9507610D01*
X5551541Y9507610D02*
X5608684Y9545705D01*
X5608684Y9545705D02*
X5751541Y9545705D01*
X5751541Y9545705D02*
X5808684Y9507610D01*
X5808684Y9507610D02*
X5837255Y9469515D01*
X5837255Y9469515D02*
X5865826Y9393324D01*
X5865826Y9393324D02*
X5865826Y9317134D01*
X5865826Y9317134D02*
X5837255Y9202848D01*
X5837255Y9202848D02*
X5494398Y8745705D01*
X5494398Y8745705D02*
X5865826Y8745705D01*
X6122970Y8821896D02*
X6151541Y8783800D01*
X6151541Y8783800D02*
X6122970Y8745705D01*
X6122970Y8745705D02*
X6094398Y8783800D01*
X6094398Y8783800D02*
X6122970Y8821896D01*
X6122970Y8821896D02*
X6122970Y8745705D01*
X6380112Y9469515D02*
X6408684Y9507610D01*
X6408684Y9507610D02*
X6465827Y9545705D01*
X6465827Y9545705D02*
X6608684Y9545705D01*
X6608684Y9545705D02*
X6665827Y9507610D01*
X6665827Y9507610D02*
X6694398Y9469515D01*
X6694398Y9469515D02*
X6722969Y9393324D01*
X6722969Y9393324D02*
X6722969Y9317134D01*
X6722969Y9317134D02*
X6694398Y9202848D01*
X6694398Y9202848D02*
X6351541Y8745705D01*
X6351541Y8745705D02*
X6722969Y8745705D01*
X7237256Y9279039D02*
X7237256Y8745705D01*
X6980113Y9279039D02*
X6980113Y8859991D01*
X6980113Y8859991D02*
X7008684Y8783800D01*
X7008684Y8783800D02*
X7065827Y8745705D01*
X7065827Y8745705D02*
X7151541Y8745705D01*
X7151541Y8745705D02*
X7208684Y8783800D01*
X7208684Y8783800D02*
X7237256Y8821896D01*
X7722970Y9164753D02*
X7522970Y9164753D01*
X7522970Y8745705D02*
X7522970Y9545705D01*
X7522970Y9545705D02*
X7808684Y9545705D01*
X2109295Y12432143D02*
X2109295Y12146429D01*
X2109295Y12146429D02*
X2490247Y12117857D01*
X2490247Y12117857D02*
X2452152Y12146429D01*
X2452152Y12146429D02*
X2414057Y12203571D01*
X2414057Y12203571D02*
X2414057Y12346429D01*
X2414057Y12346429D02*
X2452152Y12403571D01*
X2452152Y12403571D02*
X2490247Y12432143D01*
X2490247Y12432143D02*
X2566438Y12460714D01*
X2566438Y12460714D02*
X2756914Y12460714D01*
X2756914Y12460714D02*
X2833104Y12432143D01*
X2833104Y12432143D02*
X2871200Y12403571D01*
X2871200Y12403571D02*
X2909295Y12346429D01*
X2909295Y12346429D02*
X2909295Y12203571D01*
X2909295Y12203571D02*
X2871200Y12146429D01*
X2871200Y12146429D02*
X2833104Y12117857D01*
X2909295Y12717858D02*
X2109295Y12717858D01*
X2909295Y13060715D02*
X2452152Y12803572D01*
X2109295Y13060715D02*
X2566438Y12717858D01*
X2909295Y13632143D02*
X2909295Y13289286D01*
X2909295Y13460715D02*
X2109295Y13460715D01*
X2109295Y13460715D02*
X2223580Y13403572D01*
X2223580Y13403572D02*
X2299771Y13346429D01*
X2299771Y13346429D02*
X2337866Y13289286D01*
D11*
X4158927Y12808334D02*
X3968451Y12675001D01*
X4158927Y12579763D02*
X3758927Y12579763D01*
X3758927Y12579763D02*
X3758927Y12732144D01*
X3758927Y12732144D02*
X3777975Y12770239D01*
X3777975Y12770239D02*
X3797022Y12789286D01*
X3797022Y12789286D02*
X3835118Y12808334D01*
X3835118Y12808334D02*
X3892260Y12808334D01*
X3892260Y12808334D02*
X3930356Y12789286D01*
X3930356Y12789286D02*
X3949403Y12770239D01*
X3949403Y12770239D02*
X3968451Y12732144D01*
X3968451Y12732144D02*
X3968451Y12579763D01*
X3758927Y12941667D02*
X3758927Y13208334D01*
X3758927Y13208334D02*
X4158927Y13036905D01*
D10*
X471673Y9714296D02*
X814530Y9714296D01*
X643101Y9714296D02*
X643101Y8914296D01*
X643101Y8914296D02*
X700244Y9028581D01*
X700244Y9028581D02*
X757387Y9104772D01*
X757387Y9104772D02*
X814530Y9142867D01*
X214529Y9180962D02*
X214529Y9714296D01*
X214529Y9257153D02*
X185958Y9219058D01*
X185958Y9219058D02*
X128815Y9180962D01*
X128815Y9180962D02*
X43101Y9180962D01*
X43101Y9180962D02*
X-14042Y9219058D01*
X-14042Y9219058D02*
X-42613Y9295248D01*
X-42613Y9295248D02*
X-42613Y9714296D01*
X-528328Y9295248D02*
X-328328Y9295248D01*
X-328328Y9714296D02*
X-328328Y8914296D01*
X-328328Y8914296D02*
X-614042Y8914296D01*
X20693061Y9777715D02*
X21226395Y9777715D01*
X20388300Y9634858D02*
X20959728Y9492001D01*
X20959728Y9492001D02*
X20959728Y9863430D01*
X21226395Y10120573D02*
X21226395Y10234859D01*
X21226395Y10234859D02*
X21188300Y10292002D01*
X21188300Y10292002D02*
X21150204Y10320573D01*
X21150204Y10320573D02*
X21035919Y10377716D01*
X21035919Y10377716D02*
X20883538Y10406287D01*
X20883538Y10406287D02*
X20578776Y10406287D01*
X20578776Y10406287D02*
X20502585Y10377716D01*
X20502585Y10377716D02*
X20464490Y10349144D01*
X20464490Y10349144D02*
X20426395Y10292002D01*
X20426395Y10292002D02*
X20426395Y10177716D01*
X20426395Y10177716D02*
X20464490Y10120573D01*
X20464490Y10120573D02*
X20502585Y10092002D01*
X20502585Y10092002D02*
X20578776Y10063430D01*
X20578776Y10063430D02*
X20769252Y10063430D01*
X20769252Y10063430D02*
X20845442Y10092002D01*
X20845442Y10092002D02*
X20883538Y10120573D01*
X20883538Y10120573D02*
X20921633Y10177716D01*
X20921633Y10177716D02*
X20921633Y10292002D01*
X20921633Y10292002D02*
X20883538Y10349144D01*
X20883538Y10349144D02*
X20845442Y10377716D01*
X20845442Y10377716D02*
X20769252Y10406287D01*
X21150204Y10663431D02*
X21188300Y10692002D01*
X21188300Y10692002D02*
X21226395Y10663431D01*
X21226395Y10663431D02*
X21188300Y10634859D01*
X21188300Y10634859D02*
X21150204Y10663431D01*
X21150204Y10663431D02*
X21226395Y10663431D01*
X21226395Y10977716D02*
X21226395Y11092002D01*
X21226395Y11092002D02*
X21188300Y11149145D01*
X21188300Y11149145D02*
X21150204Y11177716D01*
X21150204Y11177716D02*
X21035919Y11234859D01*
X21035919Y11234859D02*
X20883538Y11263430D01*
X20883538Y11263430D02*
X20578776Y11263430D01*
X20578776Y11263430D02*
X20502585Y11234859D01*
X20502585Y11234859D02*
X20464490Y11206287D01*
X20464490Y11206287D02*
X20426395Y11149145D01*
X20426395Y11149145D02*
X20426395Y11034859D01*
X20426395Y11034859D02*
X20464490Y10977716D01*
X20464490Y10977716D02*
X20502585Y10949145D01*
X20502585Y10949145D02*
X20578776Y10920573D01*
X20578776Y10920573D02*
X20769252Y10920573D01*
X20769252Y10920573D02*
X20845442Y10949145D01*
X20845442Y10949145D02*
X20883538Y10977716D01*
X20883538Y10977716D02*
X20921633Y11034859D01*
X20921633Y11034859D02*
X20921633Y11149145D01*
X20921633Y11149145D02*
X20883538Y11206287D01*
X20883538Y11206287D02*
X20845442Y11234859D01*
X20845442Y11234859D02*
X20769252Y11263430D01*
X-417705Y12432143D02*
X-417705Y12146429D01*
X-417705Y12146429D02*
X-36753Y12117857D01*
X-36753Y12117857D02*
X-74848Y12146429D01*
X-74848Y12146429D02*
X-112943Y12203571D01*
X-112943Y12203571D02*
X-112943Y12346429D01*
X-112943Y12346429D02*
X-74848Y12403571D01*
X-74848Y12403571D02*
X-36753Y12432143D01*
X-36753Y12432143D02*
X39438Y12460714D01*
X39438Y12460714D02*
X229914Y12460714D01*
X229914Y12460714D02*
X306104Y12432143D01*
X306104Y12432143D02*
X344200Y12403571D01*
X344200Y12403571D02*
X382295Y12346429D01*
X382295Y12346429D02*
X382295Y12203571D01*
X382295Y12203571D02*
X344200Y12146429D01*
X344200Y12146429D02*
X306104Y12117857D01*
X382295Y12717858D02*
X-417705Y12717858D01*
X382295Y13060715D02*
X-74848Y12803572D01*
X-417705Y13060715D02*
X39438Y12717858D01*
X382295Y13632143D02*
X382295Y13289286D01*
X382295Y13460715D02*
X-417705Y13460715D01*
X-417705Y13460715D02*
X-303420Y13403572D01*
X-303420Y13403572D02*
X-227229Y13346429D01*
X-227229Y13346429D02*
X-189134Y13289286D01*
D11*
X1631927Y12808334D02*
X1441451Y12675001D01*
X1631927Y12579763D02*
X1231927Y12579763D01*
X1231927Y12579763D02*
X1231927Y12732144D01*
X1231927Y12732144D02*
X1250975Y12770239D01*
X1250975Y12770239D02*
X1270022Y12789286D01*
X1270022Y12789286D02*
X1308118Y12808334D01*
X1308118Y12808334D02*
X1365260Y12808334D01*
X1365260Y12808334D02*
X1403356Y12789286D01*
X1403356Y12789286D02*
X1422403Y12770239D01*
X1422403Y12770239D02*
X1441451Y12732144D01*
X1441451Y12732144D02*
X1441451Y12579763D01*
X1403356Y13036905D02*
X1384308Y12998810D01*
X1384308Y12998810D02*
X1365260Y12979763D01*
X1365260Y12979763D02*
X1327165Y12960715D01*
X1327165Y12960715D02*
X1308118Y12960715D01*
X1308118Y12960715D02*
X1270022Y12979763D01*
X1270022Y12979763D02*
X1250975Y12998810D01*
X1250975Y12998810D02*
X1231927Y13036905D01*
X1231927Y13036905D02*
X1231927Y13113096D01*
X1231927Y13113096D02*
X1250975Y13151191D01*
X1250975Y13151191D02*
X1270022Y13170239D01*
X1270022Y13170239D02*
X1308118Y13189286D01*
X1308118Y13189286D02*
X1327165Y13189286D01*
X1327165Y13189286D02*
X1365260Y13170239D01*
X1365260Y13170239D02*
X1384308Y13151191D01*
X1384308Y13151191D02*
X1403356Y13113096D01*
X1403356Y13113096D02*
X1403356Y13036905D01*
X1403356Y13036905D02*
X1422403Y12998810D01*
X1422403Y12998810D02*
X1441451Y12979763D01*
X1441451Y12979763D02*
X1479546Y12960715D01*
X1479546Y12960715D02*
X1555737Y12960715D01*
X1555737Y12960715D02*
X1593832Y12979763D01*
X1593832Y12979763D02*
X1612880Y12998810D01*
X1612880Y12998810D02*
X1631927Y13036905D01*
X1631927Y13036905D02*
X1631927Y13113096D01*
X1631927Y13113096D02*
X1612880Y13151191D01*
X1612880Y13151191D02*
X1593832Y13170239D01*
X1593832Y13170239D02*
X1555737Y13189286D01*
X1555737Y13189286D02*
X1479546Y13189286D01*
X1479546Y13189286D02*
X1441451Y13170239D01*
X1441451Y13170239D02*
X1422403Y13151191D01*
X1422403Y13151191D02*
X1403356Y13113096D01*
D10*
X14887415Y14354439D02*
X14887415Y13821105D01*
X14744557Y14659200D02*
X14601700Y14087772D01*
X14601700Y14087772D02*
X14973129Y14087772D01*
X15230272Y13821105D02*
X15344558Y13821105D01*
X15344558Y13821105D02*
X15401701Y13859200D01*
X15401701Y13859200D02*
X15430272Y13897296D01*
X15430272Y13897296D02*
X15487415Y14011581D01*
X15487415Y14011581D02*
X15515986Y14163962D01*
X15515986Y14163962D02*
X15515986Y14468724D01*
X15515986Y14468724D02*
X15487415Y14544915D01*
X15487415Y14544915D02*
X15458844Y14583010D01*
X15458844Y14583010D02*
X15401701Y14621105D01*
X15401701Y14621105D02*
X15287415Y14621105D01*
X15287415Y14621105D02*
X15230272Y14583010D01*
X15230272Y14583010D02*
X15201701Y14544915D01*
X15201701Y14544915D02*
X15173129Y14468724D01*
X15173129Y14468724D02*
X15173129Y14278248D01*
X15173129Y14278248D02*
X15201701Y14202058D01*
X15201701Y14202058D02*
X15230272Y14163962D01*
X15230272Y14163962D02*
X15287415Y14125867D01*
X15287415Y14125867D02*
X15401701Y14125867D01*
X15401701Y14125867D02*
X15458844Y14163962D01*
X15458844Y14163962D02*
X15487415Y14202058D01*
X15487415Y14202058D02*
X15515986Y14278248D01*
X15773130Y13897296D02*
X15801701Y13859200D01*
X15801701Y13859200D02*
X15773130Y13821105D01*
X15773130Y13821105D02*
X15744558Y13859200D01*
X15744558Y13859200D02*
X15773130Y13897296D01*
X15773130Y13897296D02*
X15773130Y13821105D01*
X16087415Y13821105D02*
X16201701Y13821105D01*
X16201701Y13821105D02*
X16258844Y13859200D01*
X16258844Y13859200D02*
X16287415Y13897296D01*
X16287415Y13897296D02*
X16344558Y14011581D01*
X16344558Y14011581D02*
X16373129Y14163962D01*
X16373129Y14163962D02*
X16373129Y14468724D01*
X16373129Y14468724D02*
X16344558Y14544915D01*
X16344558Y14544915D02*
X16315987Y14583010D01*
X16315987Y14583010D02*
X16258844Y14621105D01*
X16258844Y14621105D02*
X16144558Y14621105D01*
X16144558Y14621105D02*
X16087415Y14583010D01*
X16087415Y14583010D02*
X16058844Y14544915D01*
X16058844Y14544915D02*
X16030272Y14468724D01*
X16030272Y14468724D02*
X16030272Y14278248D01*
X16030272Y14278248D02*
X16058844Y14202058D01*
X16058844Y14202058D02*
X16087415Y14163962D01*
X16087415Y14163962D02*
X16144558Y14125867D01*
X16144558Y14125867D02*
X16258844Y14125867D01*
X16258844Y14125867D02*
X16315987Y14163962D01*
X16315987Y14163962D02*
X16344558Y14202058D01*
X16344558Y14202058D02*
X16373129Y14278248D01*
D12*
G04 #@! TO.C,R9*
X9600000Y15212500D02*
X11200000Y15212500D01*
X9600000Y14387500D02*
X9600000Y15212500D01*
X11200000Y15212500D02*
X11200000Y14387500D01*
X11200000Y14387500D02*
X9600000Y14387500D01*
G04 #@! TO.C,J3*
X16860000Y24190000D02*
X16860000Y17790000D01*
X17870000Y23040000D02*
X17870000Y17790000D01*
X17870000Y17790000D02*
X16860000Y17790000D01*
X18970000Y32070000D02*
X18970000Y24190000D01*
X21240000Y23040000D02*
X21240000Y17790000D01*
X21370000Y15780000D02*
X21870000Y15780000D01*
X21620000Y16280000D02*
X21370000Y15780000D01*
X21870000Y15780000D02*
X21620000Y16280000D01*
X22000000Y23040000D02*
X22000000Y17790000D01*
X22000000Y17790000D02*
X21240000Y17790000D01*
X24270000Y32070000D02*
X18970000Y32070000D01*
X24270000Y32070000D02*
X24270000Y24190000D01*
X25370000Y23040000D02*
X17870000Y23040000D01*
X25370000Y23040000D02*
X25370000Y17790000D01*
X26380000Y24190000D02*
X16860000Y24190000D01*
X26380000Y17790000D02*
X25370000Y17790000D01*
X26380000Y17790000D02*
X26380000Y24190000D01*
G04 #@! TO.C,U1*
X8762500Y8950000D02*
X9162500Y9350000D01*
X8762500Y6450000D02*
X8762500Y8950000D01*
X9162500Y9350000D02*
X10362500Y9350000D01*
X10362500Y9350000D02*
X10362500Y6450000D01*
X10362500Y6450000D02*
X8762500Y6450000D01*
G04 #@! TO.C,D1*
X13050000Y14900000D02*
X13050000Y14400000D01*
X13050000Y14400000D02*
X14650000Y14400000D01*
X13350000Y15200000D02*
X13050000Y14900000D01*
X14650000Y15200000D02*
X13350000Y15200000D01*
X14650000Y14400000D02*
X14650000Y15200000D01*
D13*
G04 #@! TO.C,J1*
X27166100Y7666400D02*
G75*
G02*
X16166100Y7666400I-5500000J0D01*
G01*
X16166100Y7666400D02*
G75*
G02*
X27166100Y7666400I5500000J0D01*
G01*
G04 #@! TO.C,J2*
D12*
X11420000Y17047500D02*
X2480000Y17047500D01*
X2480000Y23952500D01*
X11420000Y23952500D01*
X11420000Y17047500D01*
G04 #@! TO.C,R7*
X3564500Y13675000D02*
X4389500Y13675000D01*
X3564500Y12075000D02*
X3564500Y13675000D01*
X4389500Y13675000D02*
X4389500Y12075000D01*
X4389500Y12075000D02*
X3564500Y12075000D01*
G04 #@! TO.C,R8*
X1037500Y13675000D02*
X1862500Y13675000D01*
X1037500Y12075000D02*
X1037500Y13675000D01*
X1862500Y13675000D02*
X1862500Y12075000D01*
X1862500Y12075000D02*
X1037500Y12075000D01*
G04 #@! TD*
M02*
