G04 #@! TF.GenerationSoftware,KiCad,Pcbnew,8.0.6*
G04 #@! TF.CreationDate,2024-11-27T10:36:13+01:00*
G04 #@! TF.ProjectId,TDR1,54445231-2e6b-4696-9361-645f70636258,0.1*
G04 #@! TF.SameCoordinates,Original*
G04 #@! TF.FileFunction,Other,User*
%FSLAX46Y46*%
G04 Gerber Fmt 4.6, Leading zero omitted, Abs format (unit mm)*
G04 Created by KiCad (PCBNEW 8.0.6) date 2024-11-27 10:36:13*
%MOMM*%
%LPD*%
G01*
G04 APERTURE LIST*
%ADD10C,0.050000*%
G04 APERTURE END LIST*
D10*
G04 #@! TO.C,R9*
X8920000Y15530000D02*
X11880000Y15530000D01*
X8920000Y14070000D02*
X8920000Y15530000D01*
X11880000Y15530000D02*
X11880000Y14070000D01*
X11880000Y14070000D02*
X8920000Y14070000D01*
G04 #@! TO.C,J3*
X15530000Y32570000D02*
X15530000Y15570000D01*
X27710000Y32570000D02*
X15530000Y32570000D01*
X27710000Y15570000D02*
X15530000Y15570000D01*
X27710000Y15570000D02*
X27710000Y32570000D01*
G04 #@! TO.C,U1*
X7512500Y9600000D02*
X7512500Y6200000D01*
X7512500Y6200000D02*
X11612500Y6200000D01*
X11612500Y9600000D02*
X7512500Y9600000D01*
X11612500Y6200000D02*
X11612500Y9600000D01*
G04 #@! TO.C,D1*
X12200000Y15530000D02*
X15500000Y15530000D01*
X12200000Y14070000D02*
X12200000Y15530000D01*
X15500000Y15530000D02*
X15500000Y14070000D01*
X15500000Y14070000D02*
X12200000Y14070000D01*
G04 #@! TO.C,J1*
X27566100Y7666400D02*
G75*
G02*
X15766100Y7666400I-5900000J0D01*
G01*
X15766100Y7666400D02*
G75*
G02*
X27566100Y7666400I5900000J0D01*
G01*
G04 #@! TO.C,J2*
X400000Y22400000D02*
X1950000Y22400000D01*
X400000Y19850000D02*
X400000Y22400000D01*
X400000Y19850000D02*
X1950000Y19850000D01*
X400000Y16300000D02*
X400000Y18700000D01*
X400000Y16300000D02*
X13500000Y16300000D01*
X1950000Y22400000D02*
X1950000Y24500000D01*
X1950000Y18700000D02*
X400000Y18700000D01*
X1950000Y18700000D02*
X1950000Y19850000D01*
X11950000Y24500000D02*
X1950000Y24500000D01*
X11950000Y22400000D02*
X11950000Y24500000D01*
X11950000Y22400000D02*
X13500000Y22400000D01*
X11950000Y19850000D02*
X13500000Y19850000D01*
X11950000Y18700000D02*
X11950000Y19850000D01*
X13500000Y19850000D02*
X13500000Y22400000D01*
X13500000Y18700000D02*
X11950000Y18700000D01*
X13500000Y16300000D02*
X13500000Y18700000D01*
G04 #@! TO.C,R7*
X3247000Y14355000D02*
X4707000Y14355000D01*
X3247000Y11395000D02*
X3247000Y14355000D01*
X4707000Y14355000D02*
X4707000Y11395000D01*
X4707000Y11395000D02*
X3247000Y11395000D01*
G04 #@! TO.C,R8*
X720000Y14355000D02*
X2180000Y14355000D01*
X720000Y11395000D02*
X720000Y14355000D01*
X2180000Y14355000D02*
X2180000Y11395000D01*
X2180000Y11395000D02*
X720000Y11395000D01*
G04 #@! TD*
M02*
