M48
; DRILL file {KiCad 8.0.6} date 2024-11-27T10:36:13+0100
; FORMAT={-:-/ absolute / metric / decimal}
; #@! TF.CreationDate,2024-11-27T10:36:13+01:00
; #@! TF.GenerationSoftware,Kicad,Pcbnew,8.0.6
; #@! TF.FileFunction,Plated,1,2,PTH
FMAT,2
METRIC
; #@! TA.AperFunction,Plated,PTH,ViaDrill
T1C0.300
; #@! TA.AperFunction,Plated,PTH,ComponentDrill
T2C0.460
; #@! TA.AperFunction,Plated,PTH,ComponentDrill
T3C1.200
; #@! TA.AperFunction,Plated,PTH,ComponentDrill
T4C1.600
%
G90
G05
T1
X1.85Y19.3
X2.49Y9.735
X2.49Y7.195
X2.49Y4.655
X2.49Y2.115
X3.9Y11.0
X4.2Y19.8
X5.03Y4.655
X5.03Y2.115
X5.15Y12.4
X6.9Y9.1
X6.9Y7.9
X7.1Y20.75
X7.57Y4.655
X7.57Y2.115
X7.6Y12.4
X9.7Y19.8
X10.1Y10.5
X10.11Y2.115
X10.75Y4.7
X12.05Y19.25
X12.65Y2.115
X12.85Y4.7
X14.25Y10.65
X14.25Y9.05
X14.25Y7.4
X14.3Y13.75
X14.3Y12.6
X14.6Y17.45
X15.1Y4.75
X15.19Y19.895
X15.19Y2.115
X16.3Y15.15
X16.75Y11.9
X16.75Y10.6
X16.75Y9.05
X16.75Y6.4
X17.73Y2.115
X19.05Y8.75
X19.15Y16.4
X19.2Y6.45
X19.75Y9.5
X19.8Y5.8
X20.27Y2.115
X20.55Y16.45
X20.55Y11.9
X20.55Y10.2
X20.7Y5.25
X21.7Y5.05
X22.55Y5.25
X22.65Y16.4
X22.7Y13.75
X22.7Y11.9
X22.75Y15.1
X22.75Y10.2
X22.81Y2.115
X23.3Y5.65
X23.55Y9.5
X24.0Y6.5
X24.15Y8.5
X24.25Y7.6
X25.35Y14.815
X25.35Y2.115
X27.89Y14.815
X27.89Y12.275
X27.89Y9.735
X27.89Y7.195
X27.89Y4.655
X27.89Y2.115
X27.9Y18.2
X27.9Y16.4
T2
X17.24Y16.56
X26.0Y16.56
T3
X21.666Y7.666
T4
X18.516Y10.816
X18.516Y4.516
X24.816Y10.816
X24.816Y4.516
M30
